<svg xmlns="http://www.w3.org/2000/svg" xmlns:xlink="http://www.w3.org/1999/xlink" contentStyleType="text/css" height="1665px" preserveAspectRatio="none" style="width:3025px;height:1665px;background:#FFFFFF;" version="1.1" viewBox="0 0 3025 1665" width="3025px" zoomAndPan="magnify"><title>&#1057;&#1082;&#1074;&#1086;&#1079;&#1085;&#1086;&#1081; &#1082;&#1086;&#1085;&#1074;&#1077;&#1081;&#1077;&#1088;: &#1079;&#1072;&#1103;&#1074;&#1082;&#1072; -&gt; &#1089;&#1098;&#1105;&#1084;&#1082;&#1072; -&gt; &#1048;&#1048;-&#1072;&#1085;&#1072;&#1083;&#1080;&#1079; -&gt; &#1082;&#1072;&#1090;&#1072;&#1083;&#1086;&#1075; -&gt; &#1086;&#1090;&#1095;&#1105;&#1090; (BPMN)</title><defs/><g><text fill="#000000" font-family="sans-serif" font-size="14" font-weight="bold" lengthAdjust="spacing" textLength="648.4639" x="1186.7871" y="32.9951">&#1057;&#1082;&#1074;&#1086;&#1079;&#1085;&#1086;&#1081; &#1082;&#1086;&#1085;&#1074;&#1077;&#1081;&#1077;&#1088;: &#1079;&#1072;&#1103;&#1074;&#1082;&#1072; -&gt; &#1089;&#1098;&#1105;&#1084;&#1082;&#1072; -&gt; &#1048;&#1048;-&#1072;&#1085;&#1072;&#1083;&#1080;&#1079; -&gt; &#1082;&#1072;&#1090;&#1072;&#1083;&#1086;&#1075; -&gt; &#1086;&#1090;&#1095;&#1105;&#1090; (BPMN)</text><rect fill="#F0F0F0" height="20.9531" style="stroke:#F0F0F0;stroke-width:1.0;" width="2992.0381" x="15" y="50.042"/><rect fill="#FDF1F1" height="1603.7261" style="stroke:#FDF1F1;stroke-width:1.0;" width="300.355" x="15" y="50.042"/><ellipse cx="113.7871" cy="85.9951" fill="#222222" rx="10" ry="10" style="stroke:#222222;stroke-width:1.0;"/><rect fill="#EAF2FB" height="47.9375" rx="12.5" ry="12.5" style="stroke:#2C6FB5;stroke-width:0.5;" width="185.5742" x="21" y="115.9951"/><text fill="#000000" font-family="sans-serif" font-size="12" lengthAdjust="spacing" textLength="92.5781" x="31" y="137.1338">&#1055;&#1086;&#1076;&#1072;&#1105;&#1090; &#1079;&#1072;&#1103;&#1074;&#1082;&#1091;</text><text fill="#000000" font-family="sans-serif" font-size="12" lengthAdjust="spacing" textLength="165.5742" x="31" y="151.1025">(&#1082;&#1072;&#1090;&#1072;&#1083;&#1086;&#1078;&#1085;&#1099;&#1081; &#1085;&#1086;&#1084;&#1077;&#1088; / TLE)</text><rect fill="#EAF2FB" height="33.9688" rx="12.5" ry="12.5" style="stroke:#2C6FB5;stroke-width:0.5;" width="152.7207" x="158.6343" y="471.7451"/><text fill="#000000" font-family="sans-serif" font-size="12" lengthAdjust="spacing" textLength="132.7207" x="168.6343" y="492.8838">&#1056;&#1072;&#1089;&#1096;&#1080;&#1088;&#1103;&#1077;&#1090; &#1080;&#1085;&#1090;&#1077;&#1088;&#1074;&#1072;&#1083;</text><ellipse cx="234.9946" cy="536.7139" fill="none" rx="11" ry="11" style="stroke:#222222;stroke-width:1.0;"/><ellipse cx="234.9946" cy="536.7139" fill="#222222" rx="6" ry="6" style="stroke:#222222;stroke-width:1.0;"/><rect fill="#EAF2FB" height="33.9688" rx="12.5" ry="12.5" style="stroke:#2C6FB5;stroke-width:0.5;" width="119.5625" x="54.0059" y="1577.7993"/><text fill="#000000" font-family="sans-serif" font-size="12" lengthAdjust="spacing" textLength="99.5625" x="64.0059" y="1598.938">&#1055;&#1086;&#1083;&#1091;&#1095;&#1072;&#1077;&#1090; &#1086;&#1090;&#1095;&#1105;&#1090;</text><ellipse cx="113.7871" cy="1642.7681" fill="none" rx="11" ry="11" style="stroke:#222222;stroke-width:1.0;"/><ellipse cx="113.7871" cy="1642.7681" fill="#222222" rx="6" ry="6" style="stroke:#222222;stroke-width:1.0;"/><line style="stroke:#999999;stroke-width:1.5;" x1="15" x2="15" y1="50.042" y2="1653.7681"/><rect fill="#E3F2FD" height="1603.7261" style="stroke:#E3F2FD;stroke-width:1.0;" width="172.1777" x="315.355" y="50.042"/><rect fill="#EAF2FB" height="33.9688" rx="12.5" ry="12.5" style="stroke:#2C6FB5;stroke-width:0.5;" width="162.1777" x="321.355" y="183.9326"/><text fill="#000000" font-family="sans-serif" font-size="12" lengthAdjust="spacing" textLength="142.1777" x="331.355" y="205.0713">&#1055;&#1088;&#1086;&#1075;&#1085;&#1086;&#1079; &#1076;&#1074;&#1080;&#1078;&#1077;&#1085;&#1080;&#1103; &#1054;&#1053;</text><rect fill="#EAF2FB" height="33.9688" rx="12.5" ry="12.5" style="stroke:#2C6FB5;stroke-width:0.5;" width="162.0664" x="321.4106" y="237.9014"/><text fill="#000000" font-family="sans-serif" font-size="12" lengthAdjust="spacing" textLength="142.0664" x="331.4106" y="259.04">&#1055;&#1086;&#1089;&#1090;&#1088;&#1086;&#1080;&#1090;&#1100; &#1101;&#1092;&#1077;&#1084;&#1077;&#1088;&#1080;&#1076;&#1091;</text><line style="stroke:#999999;stroke-width:1.5;" x1="315.355" x2="315.355" y1="50.042" y2="1653.7681"/><rect fill="#E8F5E9" height="1603.7261" style="stroke:#E8F5E9;stroke-width:1.0;" width="474.8301" x="487.5327" y="50.042"/><rect fill="#EAF2FB" height="47.9375" rx="12.5" ry="12.5" style="stroke:#2C6FB5;stroke-width:0.5;" width="243.4063" x="601.1582" y="291.8701"/><text fill="#000000" font-family="sans-serif" font-size="12" lengthAdjust="spacing" textLength="177.2461" x="611.1582" y="313.0088">&#1056;&#1072;&#1089;&#1089;&#1095;&#1080;&#1090;&#1072;&#1090;&#1100; &#1086;&#1082;&#1085;&#1072; &#1074;&#1080;&#1076;&#1080;&#1084;&#1086;&#1089;&#1090;&#1080;</text><text fill="#000000" font-family="sans-serif" font-size="12" lengthAdjust="spacing" textLength="223.4063" x="611.1582" y="326.9775">(&#1074;&#1099;&#1089;&#1086;&#1090;&#1072;, &#1086;&#1089;&#1074;&#1077;&#1097;&#1105;&#1085;&#1085;&#1086;&#1089;&#1090;&#1100;, &#1084;&#1077;&#1090;&#1077;&#1086;, &#1057;&#1053;)</text><polygon fill="#FFF6E0" points="658.3384,359.8076,787.3843,359.8076,799.3843,371.8076,787.3843,383.8076,658.3384,383.8076,646.3384,371.8076,658.3384,359.8076" style="stroke:#C8902A;stroke-width:0.5;"/><text fill="#000000" font-family="sans-serif" font-size="11" lengthAdjust="spacing" textLength="129.0459" x="658.3384" y="375.6157">&#1045;&#1089;&#1090;&#1100; &#1086;&#1082;&#1085;&#1072; &#1074;&#1080;&#1076;&#1080;&#1084;&#1086;&#1089;&#1090;&#1080;?</text><text fill="#000000" font-family="sans-serif" font-size="11" lengthAdjust="spacing" textLength="14.3462" x="631.9922" y="369.2134">&#1076;&#1072;</text><text fill="#000000" font-family="sans-serif" font-size="11" lengthAdjust="spacing" textLength="20.3672" x="799.3843" y="369.2134">&#1085;&#1077;&#1090;</text><rect fill="#EAF2FB" height="47.9375" rx="12.5" ry="12.5" style="stroke:#2C6FB5;stroke-width:0.5;" width="216.2422" x="493.5327" y="403.8076"/><text fill="#000000" font-family="sans-serif" font-size="12" lengthAdjust="spacing" textLength="148.5762" x="503.5327" y="424.9463">&#1057;&#1086;&#1089;&#1090;&#1072;&#1074;&#1080;&#1090;&#1100; &#1075;&#1088;&#1072;&#1092;&#1080;&#1082; &#1089;&#1077;&#1090;&#1080;</text><text fill="#000000" font-family="sans-serif" font-size="12" lengthAdjust="spacing" textLength="196.2422" x="503.5327" y="438.915">(18 &#1080;&#1085;&#1089;&#1090;&#1088;&#1091;&#1084;&#1077;&#1085;&#1090;&#1086;&#1074;, 13 &#1087;&#1091;&#1085;&#1082;&#1090;&#1086;&#1074;)</text><rect fill="#EAF2FB" height="33.9688" rx="12.5" ry="12.5" style="stroke:#2C6FB5;stroke-width:0.5;" width="228.5879" x="729.7749" y="403.8076"/><text fill="#000000" font-family="sans-serif" font-size="12" lengthAdjust="spacing" textLength="208.5879" x="739.7749" y="424.9463">&#1042;&#1077;&#1088;&#1085;&#1091;&#1090;&#1100; NO_VISIBILITY_WINDOWS</text><line style="stroke:#999999;stroke-width:1.5;" x1="487.5327" x2="487.5327" y1="50.042" y2="1653.7681"/><rect fill="#F3E5F5" height="1603.7261" style="stroke:#F3E5F5;stroke-width:1.0;" width="240.6973" x="962.3628" y="50.042"/><rect fill="#EAF2FB" height="33.9688" rx="12.5" ry="12.5" style="stroke:#2C6FB5;stroke-width:0.5;" width="208.2559" x="979.5835" y="567.7139"/><text fill="#000000" font-family="sans-serif" font-size="12" lengthAdjust="spacing" textLength="188.2559" x="989.5835" y="588.8525">&#1053;&#1072;&#1074;&#1077;&#1089;&#1090;&#1080;&#1089;&#1100; &#1074; &#1088;&#1072;&#1089;&#1095;&#1105;&#1090;&#1085;&#1091;&#1102; &#1090;&#1086;&#1095;&#1082;&#1091;</text><rect fill="#EAF2FB" height="33.9688" rx="12.5" ry="12.5" style="stroke:#2C6FB5;stroke-width:0.5;" width="230.6973" x="968.3628" y="621.6826"/><text fill="#000000" font-family="sans-serif" font-size="12" lengthAdjust="spacing" textLength="210.6973" x="978.3628" y="642.8213">&#1057;&#1085;&#1103;&#1090;&#1100; &#1091;&#1095;&#1072;&#1089;&#1090;&#1086;&#1082; &#1085;&#1077;&#1073;&#1072; / &#1088;&#1072;&#1076;&#1080;&#1086;&#1089;&#1077;&#1072;&#1085;&#1089;</text><rect fill="#EAF2FB" height="33.9688" rx="12.5" ry="12.5" style="stroke:#2C6FB5;stroke-width:0.5;" width="164.3457" x="1001.5386" y="675.6514"/><text fill="#000000" font-family="sans-serif" font-size="12" lengthAdjust="spacing" textLength="144.3457" x="1011.5386" y="696.79">&#1055;&#1077;&#1088;&#1077;&#1076;&#1072;&#1090;&#1100; &#1089;&#1099;&#1088;&#1086;&#1081; &#1087;&#1086;&#1090;&#1086;&#1082;</text><line style="stroke:#999999;stroke-width:1.5;" x1="962.3628" x2="962.3628" y1="50.042" y2="1653.7681"/><rect fill="#ECEFF1" height="1603.7261" style="stroke:#ECEFF1;stroke-width:1.0;" width="437.5137" x="1203.0601" y="50.042"/><rect fill="#EAF2FB" height="33.9688" rx="12.5" ry="12.5" style="stroke:#2C6FB5;stroke-width:0.5;" width="268.9414" x="1302.2725" y="729.6201"/><text fill="#000000" font-family="sans-serif" font-size="12" lengthAdjust="spacing" textLength="248.9414" x="1312.2725" y="750.7588">&#1057;&#1073;&#1086;&#1088; &#1087;&#1086;&#1090;&#1086;&#1082;&#1072; Debezium -&gt; Kafka -&gt; Flink</text><rect fill="#EAF2FB" height="47.9375" rx="12.5" ry="12.5" style="stroke:#2C6FB5;stroke-width:0.5;" width="230.2227" x="1321.6318" y="783.5889"/><text fill="#000000" font-family="sans-serif" font-size="12" lengthAdjust="spacing" textLength="182.3086" x="1331.6318" y="804.7275">&#1053;&#1086;&#1088;&#1084;&#1072;&#1083;&#1080;&#1079;&#1072;&#1094;&#1080;&#1103; &#1080; &#1082;&#1072;&#1083;&#1080;&#1073;&#1088;&#1086;&#1074;&#1082;&#1072;</text><text fill="#000000" font-family="sans-serif" font-size="12" lengthAdjust="spacing" textLength="210.2227" x="1331.6318" y="818.6963">(&#1072;&#1089;&#1090;&#1088;&#1086;&#1084;&#1077;&#1090;&#1088;&#1080;&#1103;, &#1086;&#1090;&#1073;&#1088;&#1072;&#1082;&#1086;&#1074;&#1082;&#1072; &#1096;&#1091;&#1084;&#1072;)</text><polygon fill="#FFF6E0" points="1338.3608,851.5264,1535.1255,851.5264,1547.1255,863.5264,1535.1255,875.5264,1338.3608,875.5264,1326.3608,863.5264,1338.3608,851.5264" style="stroke:#C8902A;stroke-width:0.5;"/><text fill="#000000" font-family="sans-serif" font-size="11" lengthAdjust="spacing" textLength="196.7646" x="1338.3608" y="867.3345">&#1050;&#1072;&#1076;&#1088; &#1087;&#1088;&#1086;&#1096;&#1105;&#1083; &#1082;&#1086;&#1085;&#1090;&#1088;&#1086;&#1083;&#1100; &#1082;&#1072;&#1095;&#1077;&#1089;&#1090;&#1074;&#1072;?</text><text fill="#000000" font-family="sans-serif" font-size="11" lengthAdjust="spacing" textLength="14.3462" x="1312.0146" y="860.9321">&#1076;&#1072;</text><text fill="#000000" font-family="sans-serif" font-size="11" lengthAdjust="spacing" textLength="20.3672" x="1547.1255" y="860.9321">&#1085;&#1077;&#1090;</text><rect fill="#EAF2FB" height="47.9375" rx="12.5" ry="12.5" style="stroke:#2C6FB5;stroke-width:0.5;" width="214.6016" x="1209.0601" y="885.5264"/><text fill="#000000" font-family="sans-serif" font-size="12" lengthAdjust="spacing" textLength="115.1836" x="1219.0601" y="906.665">Feature extraction:</text><text fill="#000000" font-family="sans-serif" font-size="12" lengthAdjust="spacing" textLength="194.6016" x="1219.0601" y="920.6338">&#1074;&#1099;&#1076;&#1077;&#1083;&#1080;&#1090;&#1100; &#1086;&#1073;&#1098;&#1077;&#1082;&#1090;&#1099;, &#1089;&#1080;&#1075;&#1085;&#1072;&#1090;&#1091;&#1088;&#1099;</text><rect fill="#EAF2FB" height="47.9375" rx="12.5" ry="12.5" style="stroke:#2C6FB5;stroke-width:0.5;" width="158.8965" x="1477.6772" y="885.5264"/><text fill="#000000" font-family="sans-serif" font-size="12" lengthAdjust="spacing" textLength="138.8965" x="1487.6772" y="906.665">&#1050;&#1072;&#1076;&#1088; QUALITY_FAILED,</text><text fill="#000000" font-family="sans-serif" font-size="12" lengthAdjust="spacing" textLength="62.127" x="1487.6772" y="920.6338">&#1080;&#1085;&#1094;&#1080;&#1076;&#1077;&#1085;&#1090;</text><ellipse cx="1557.1255" cy="964.4639" fill="none" rx="11" ry="11" style="stroke:#222222;stroke-width:1.0;"/><ellipse cx="1557.1255" cy="964.4639" fill="#222222" rx="6" ry="6" style="stroke:#222222;stroke-width:1.0;"/><line style="stroke:#999999;stroke-width:1.5;" x1="1203.0601" x2="1203.0601" y1="50.042" y2="1653.7681"/><rect fill="#FFE0B2" height="1603.7261" style="stroke:#FFE0B2;stroke-width:1.0;" width="858.3535" x="1640.5737" y="50.042"/><rect fill="#EAF2FB" height="33.9688" rx="12.5" ry="12.5" style="stroke:#2C6FB5;stroke-width:0.5;" width="171.7168" x="2064.5664" y="995.4639"/><text fill="#000000" font-family="sans-serif" font-size="12" lengthAdjust="spacing" textLength="151.7168" x="2074.5664" y="1016.6025">&#1048;&#1085;&#1092;&#1077;&#1088;&#1077;&#1085;&#1089; &#1087;&#1086; &#1089;&#1080;&#1075;&#1085;&#1072;&#1090;&#1091;&#1088;&#1077;</text><polygon fill="#FFF6E0" points="2088.5793,1049.4326,2212.2703,1049.4326,2224.2703,1061.4326,2212.2703,1073.4326,2088.5793,1073.4326,2076.5793,1061.4326,2088.5793,1049.4326" style="stroke:#C8902A;stroke-width:0.5;"/><text fill="#000000" font-family="sans-serif" font-size="11" lengthAdjust="spacing" textLength="123.6909" x="2088.5793" y="1065.2407">&#1048;&#1048;-&#1089;&#1077;&#1088;&#1074;&#1080;&#1089; &#1076;&#1086;&#1089;&#1090;&#1091;&#1087;&#1077;&#1085;?</text><text fill="#000000" font-family="sans-serif" font-size="11" lengthAdjust="spacing" textLength="14.3462" x="2062.2332" y="1058.8384">&#1076;&#1072;</text><text fill="#000000" font-family="sans-serif" font-size="11" lengthAdjust="spacing" textLength="20.3672" x="2224.2703" y="1058.8384">&#1085;&#1077;&#1090;</text><polygon fill="#FFF6E0" points="1681.3901,1108.4326,1825.7437,1108.4326,1837.7437,1120.4326,1825.7437,1132.4326,1681.3901,1132.4326,1669.3901,1120.4326,1681.3901,1108.4326" style="stroke:#C8902A;stroke-width:0.5;"/><text fill="#000000" font-family="sans-serif" font-size="11" lengthAdjust="spacing" textLength="61.73" x="1757.5669" y="1142.6431">&#1080;&#1079;&#1074;&#1077;&#1089;&#1090;&#1085;&#1099;&#1081;</text><text fill="#000000" font-family="sans-serif" font-size="11" lengthAdjust="spacing" textLength="144.3535" x="1681.3901" y="1124.2407">&#1057;&#1086;&#1074;&#1087;&#1072;&#1076;&#1077;&#1085;&#1080;&#1077; &#1089; &#1101;&#1090;&#1072;&#1083;&#1086;&#1085;&#1086;&#1084;?</text><rect fill="#EAF2FB" height="33.9688" rx="12.5" ry="12.5" style="stroke:#2C6FB5;stroke-width:0.5;" width="213.9863" x="1646.5737" y="1164.1431"/><text fill="#000000" font-family="sans-serif" font-size="12" lengthAdjust="spacing" textLength="193.9863" x="1656.5737" y="1185.2817">&#1052;&#1077;&#1090;&#1082;&#1072; IDENTIFIED + confidence</text><polygon fill="#FFF6E0" points="1895.4536,1108.4326,2038.1313,1108.4326,2050.1313,1120.4326,2038.1313,1132.4326,1895.4536,1132.4326,1883.4536,1120.4326,1895.4536,1108.4326" style="stroke:#C8902A;stroke-width:0.5;"/><text fill="#000000" font-family="sans-serif" font-size="11" lengthAdjust="spacing" textLength="56.4985" x="1970.7925" y="1142.6431">&#1072;&#1085;&#1086;&#1084;&#1072;&#1083;&#1080;&#1103;</text><text fill="#000000" font-family="sans-serif" font-size="11" lengthAdjust="spacing" textLength="142.6777" x="1895.4536" y="1124.2407">&#1040;&#1085;&#1086;&#1084;&#1072;&#1083;&#1100;&#1085;&#1086;&#1077; &#1087;&#1086;&#1074;&#1077;&#1076;&#1077;&#1085;&#1080;&#1077;?</text><text fill="#000000" font-family="sans-serif" font-size="11" lengthAdjust="spacing" textLength="92.3882" x="2050.1313" y="1117.8384">&#1085;&#1077;&#1090; &#1089;&#1086;&#1074;&#1087;&#1072;&#1076;&#1077;&#1085;&#1080;&#1103;</text><rect fill="#EAF2FB" height="47.9375" rx="12.5" ry="12.5" style="stroke:#2C6FB5;stroke-width:0.5;" width="192.4648" x="1870.5601" y="1164.1431"/><text fill="#000000" font-family="sans-serif" font-size="12" lengthAdjust="spacing" textLength="106.166" x="1880.5601" y="1185.2817">&#1052;&#1077;&#1090;&#1082;&#1072; ANOMALY,</text><text fill="#000000" font-family="sans-serif" font-size="12" lengthAdjust="spacing" textLength="172.4648" x="1880.5601" y="1199.2505">&#1087;&#1088;&#1080;&#1086;&#1088;&#1080;&#1090;&#1077;&#1090;&#1085;&#1086;&#1077; &#1086;&#1087;&#1086;&#1074;&#1077;&#1097;&#1077;&#1085;&#1080;&#1077;</text><rect fill="#EAF2FB" height="33.9688" rx="12.5" ry="12.5" style="stroke:#2C6FB5;stroke-width:0.5;" width="142.0742" x="2083.0249" y="1167.7251"/><text fill="#000000" font-family="sans-serif" font-size="12" lengthAdjust="spacing" textLength="122.0742" x="2093.0249" y="1188.8638">&#1052;&#1077;&#1090;&#1082;&#1072; NEW_OBJECT</text><rect fill="#EAF2FB" height="47.9375" rx="12.5" ry="12.5" style="stroke:#2C6FB5;stroke-width:0.5;" width="249.8281" x="2245.0991" y="1083.4326"/><text fill="#000000" font-family="sans-serif" font-size="12" lengthAdjust="spacing" textLength="229.8281" x="2255.0991" y="1104.5713">&#1041;&#1091;&#1092;&#1077;&#1088;&#1080;&#1079;&#1086;&#1074;&#1072;&#1090;&#1100; &#1089;&#1080;&#1075;&#1085;&#1072;&#1090;&#1091;&#1088;&#1091; &#1074; &#1086;&#1095;&#1077;&#1088;&#1077;&#1076;&#1100;,</text><text fill="#000000" font-family="sans-serif" font-size="12" lengthAdjust="spacing" textLength="190.8047" x="2255.0991" y="1118.54">&#1087;&#1086;&#1074;&#1090;&#1086;&#1088; &#1087;&#1086;&#1089;&#1083;&#1077; &#1074;&#1086;&#1089;&#1089;&#1090;&#1072;&#1085;&#1086;&#1074;&#1083;&#1077;&#1085;&#1080;&#1103;</text><line style="stroke:#999999;stroke-width:1.5;" x1="1640.5737" x2="1640.5737" y1="50.042" y2="1653.7681"/><rect fill="#E3F2FD" height="1603.7261" style="stroke:#E3F2FD;stroke-width:1.0;" width="222.8672" x="2498.9272" y="50.042"/><rect fill="#EAF2FB" height="47.9375" rx="12.5" ry="12.5" style="stroke:#2C6FB5;stroke-width:0.5;" width="194.6738" x="2514.0239" y="1252.0806"/><text fill="#000000" font-family="sans-serif" font-size="12" lengthAdjust="spacing" textLength="174.6738" x="2524.0239" y="1273.2192">&#1059;&#1090;&#1086;&#1095;&#1085;&#1080;&#1090;&#1100; &#1074;&#1077;&#1082;&#1090;&#1086;&#1088; &#1089;&#1086;&#1089;&#1090;&#1086;&#1103;&#1085;&#1080;&#1103;</text><text fill="#000000" font-family="sans-serif" font-size="12" lengthAdjust="spacing" textLength="151.6523" x="2524.0239" y="1287.188">(&#1080;&#1083;&#1080; &#1079;&#1072;&#1074;&#1077;&#1089;&#1090;&#1080; &#1085;&#1086;&#1074;&#1099;&#1081; &#1054;&#1053;)</text><rect fill="#EAF2FB" height="47.9375" rx="12.5" ry="12.5" style="stroke:#2C6FB5;stroke-width:0.5;" width="194.2695" x="2514.2261" y="1320.0181"/><text fill="#000000" font-family="sans-serif" font-size="12" lengthAdjust="spacing" textLength="143.0391" x="2524.2261" y="1341.1567">&#1057;&#1086;&#1093;&#1088;&#1072;&#1085;&#1080;&#1090;&#1100; &#1074; Data Lake</text><text fill="#000000" font-family="sans-serif" font-size="12" lengthAdjust="spacing" textLength="174.2695" x="2524.2261" y="1355.1255">(PostgreSQL + S3 + Iceberg)</text><rect fill="#EAF2FB" height="47.9375" rx="12.5" ry="12.5" style="stroke:#2C6FB5;stroke-width:0.5;" width="212.8672" x="2504.9272" y="1387.9556"/><text fill="#000000" font-family="sans-serif" font-size="12" lengthAdjust="spacing" textLength="192.8672" x="2514.9272" y="1409.0942">&#1047;&#1072;&#1092;&#1080;&#1082;&#1089;&#1080;&#1088;&#1086;&#1074;&#1072;&#1090;&#1100; lineage (Atlas),</text><text fill="#000000" font-family="sans-serif" font-size="12" lengthAdjust="spacing" textLength="154.8164" x="2514.9272" y="1423.063">&#1089;&#1086;&#1073;&#1099;&#1090;&#1080;&#1077; catalog.updated</text><line style="stroke:#999999;stroke-width:1.5;" x1="2498.9272" x2="2498.9272" y1="50.042" y2="1653.7681"/><rect fill="#EAF2FB" height="1603.7261" style="stroke:#EAF2FB;stroke-width:1.0;" width="283.3828" x="2721.7944" y="50.042"/><rect fill="#EAF2FB" height="47.9375" rx="12.5" ry="12.5" style="stroke:#2C6FB5;stroke-width:0.5;" width="273.3828" x="2727.7944" y="1455.8931"/><text fill="#000000" font-family="sans-serif" font-size="12" lengthAdjust="spacing" textLength="91.7637" x="2737.7944" y="1477.0317">&#1057;&#1086;&#1073;&#1088;&#1072;&#1090;&#1100; &#1086;&#1090;&#1095;&#1105;&#1090;</text><text fill="#000000" font-family="sans-serif" font-size="12" lengthAdjust="spacing" textLength="253.3828" x="2737.7944" y="1491.0005">(&#1080;&#1076;&#1077;&#1085;&#1090;&#1080;&#1092;&#1080;&#1082;&#1072;&#1094;&#1080;&#1103;, &#1086;&#1088;&#1073;&#1080;&#1090;&#1072;, &#1090;&#1086;&#1095;&#1085;&#1086;&#1089;&#1090;&#1100;, &#1057;&#1053;)</text><rect fill="#EAF2FB" height="33.9688" rx="12.5" ry="12.5" style="stroke:#2C6FB5;stroke-width:0.5;" width="248.5039" x="2740.2339" y="1523.8306"/><text fill="#000000" font-family="sans-serif" font-size="12" lengthAdjust="spacing" textLength="228.5039" x="2750.2339" y="1544.9692">&#1044;&#1086;&#1089;&#1090;&#1072;&#1074;&#1080;&#1090;&#1100; &#1087;&#1086; &#1079;&#1072;&#1097;&#1080;&#1097;&#1105;&#1085;&#1085;&#1086;&#1084;&#1091; &#1082;&#1072;&#1085;&#1072;&#1083;&#1091;</text><line style="stroke:#999999;stroke-width:1.5;" x1="2721.7944" x2="2721.7944" y1="50.042" y2="1653.7681"/><line style="stroke:#999999;stroke-width:1.5;" x1="3005.1772" x2="3005.1772" y1="50.042" y2="1653.7681"/><line style="stroke:#181818;stroke-width:1.0;" x1="113.7871" x2="113.7871" y1="95.9951" y2="115.9951"/><polygon fill="#181818" points="109.7871,105.9951,113.7871,115.9951,117.7871,105.9951,113.7871,109.9951" style="stroke:#181818;stroke-width:1.0;"/><line style="stroke:#181818;stroke-width:1.0;" x1="234.9946" x2="234.9946" y1="505.7139" y2="525.7139"/><polygon fill="#181818" points="230.9946,515.7139,234.9946,525.7139,238.9946,515.7139,234.9946,519.7139" style="stroke:#181818;stroke-width:1.0;"/><line style="stroke:#181818;stroke-width:1.0;" x1="113.7871" x2="113.7871" y1="1611.7681" y2="1631.7681"/><polygon fill="#181818" points="109.7871,1621.7681,113.7871,1631.7681,117.7871,1621.7681,113.7871,1625.7681" style="stroke:#181818;stroke-width:1.0;"/><line style="stroke:#181818;stroke-width:1.0;" x1="402.4438" x2="402.4438" y1="217.9014" y2="237.9014"/><polygon fill="#181818" points="398.4438,227.9014,402.4438,237.9014,406.4438,227.9014,402.4438,231.9014" style="stroke:#181818;stroke-width:1.0;"/><line style="stroke:#181818;stroke-width:1.0;" x1="646.3384" x2="601.6538" y1="371.8076" y2="371.8076"/><line style="stroke:#181818;stroke-width:1.0;" x1="601.6538" x2="601.6538" y1="371.8076" y2="403.8076"/><polygon fill="#181818" points="597.6538,393.8076,601.6538,403.8076,605.6538,393.8076,601.6538,397.8076" style="stroke:#181818;stroke-width:1.0;"/><line style="stroke:#181818;stroke-width:1.0;" x1="799.3843" x2="844.0688" y1="371.8076" y2="371.8076"/><line style="stroke:#181818;stroke-width:1.0;" x1="844.0688" x2="844.0688" y1="371.8076" y2="403.8076"/><polygon fill="#181818" points="840.0688,393.8076,844.0688,403.8076,848.0688,393.8076,844.0688,397.8076" style="stroke:#181818;stroke-width:1.0;"/><line style="stroke:#181818;stroke-width:1.0;" x1="601.6538" x2="601.6538" y1="451.7451" y2="552.7139"/><line style="stroke:#181818;stroke-width:1.0;" x1="601.6538" x2="1083.7114" y1="552.7139" y2="552.7139"/><line style="stroke:#181818;stroke-width:1.0;" x1="1083.7114" x2="1083.7114" y1="552.7139" y2="567.7139"/><polygon fill="#181818" points="1079.7114,557.7139,1083.7114,567.7139,1087.7114,557.7139,1083.7114,561.7139" style="stroke:#181818;stroke-width:1.0;"/><line style="stroke:#181818;stroke-width:1.0;" x1="722.8613" x2="722.8613" y1="339.8076" y2="359.8076"/><polygon fill="#181818" points="718.8613,349.8076,722.8613,359.8076,726.8613,349.8076,722.8613,353.8076" style="stroke:#181818;stroke-width:1.0;"/><line style="stroke:#181818;stroke-width:1.0;" x1="1083.7114" x2="1083.7114" y1="601.6826" y2="621.6826"/><polygon fill="#181818" points="1079.7114,611.6826,1083.7114,621.6826,1087.7114,611.6826,1083.7114,615.6826" style="stroke:#181818;stroke-width:1.0;"/><line style="stroke:#181818;stroke-width:1.0;" x1="1083.7114" x2="1083.7114" y1="655.6514" y2="675.6514"/><polygon fill="#181818" points="1079.7114,665.6514,1083.7114,675.6514,1087.7114,665.6514,1083.7114,669.6514" style="stroke:#181818;stroke-width:1.0;"/><line style="stroke:#181818;stroke-width:1.0;" x1="1436.7432" x2="1436.7432" y1="763.5889" y2="783.5889"/><polygon fill="#181818" points="1432.7432,773.5889,1436.7432,783.5889,1440.7432,773.5889,1436.7432,777.5889" style="stroke:#181818;stroke-width:1.0;"/><line style="stroke:#181818;stroke-width:1.0;" x1="1557.1255" x2="1557.1255" y1="933.4639" y2="953.4639"/><polygon fill="#181818" points="1553.1255,943.4639,1557.1255,953.4639,1561.1255,943.4639,1557.1255,947.4639" style="stroke:#181818;stroke-width:1.0;"/><line style="stroke:#181818;stroke-width:1.0;" x1="1326.3608" x2="1316.3608" y1="863.5264" y2="863.5264"/><line style="stroke:#181818;stroke-width:1.0;" x1="1316.3608" x2="1316.3608" y1="863.5264" y2="885.5264"/><polygon fill="#181818" points="1312.3608,875.5264,1316.3608,885.5264,1320.3608,875.5264,1316.3608,879.5264" style="stroke:#181818;stroke-width:1.0;"/><line style="stroke:#181818;stroke-width:1.0;" x1="1547.1255" x2="1557.1255" y1="863.5264" y2="863.5264"/><line style="stroke:#181818;stroke-width:1.0;" x1="1557.1255" x2="1557.1255" y1="863.5264" y2="885.5264"/><polygon fill="#181818" points="1553.1255,875.5264,1557.1255,885.5264,1561.1255,875.5264,1557.1255,879.5264" style="stroke:#181818;stroke-width:1.0;"/><line style="stroke:#181818;stroke-width:1.0;" x1="1316.3608" x2="1316.3608" y1="933.4639" y2="980.4639"/><line style="stroke:#181818;stroke-width:1.0;" x1="1316.3608" x2="2150.4248" y1="980.4639" y2="980.4639"/><line style="stroke:#181818;stroke-width:1.0;" x1="2150.4248" x2="2150.4248" y1="980.4639" y2="995.4639"/><polygon fill="#181818" points="2146.4248,985.4639,2150.4248,995.4639,2154.4248,985.4639,2150.4248,989.4639" style="stroke:#181818;stroke-width:1.0;"/><line style="stroke:#181818;stroke-width:1.0;" x1="1436.7432" x2="1436.7432" y1="831.5264" y2="851.5264"/><polygon fill="#181818" points="1432.7432,841.5264,1436.7432,851.5264,1440.7432,841.5264,1436.7432,845.5264" style="stroke:#181818;stroke-width:1.0;"/><line style="stroke:#181818;stroke-width:1.0;" x1="1753.5669" x2="1753.5669" y1="1132.4326" y2="1164.1431"/><polygon fill="#181818" points="1749.5669,1154.1431,1753.5669,1164.1431,1757.5669,1154.1431,1753.5669,1158.1431" style="stroke:#181818;stroke-width:1.0;"/><line style="stroke:#181818;stroke-width:1.0;" x1="1753.5669" x2="1753.5669" y1="1198.1118" y2="1232.0806"/><polygon fill="#181818" points="1749.5669,1222.0806,1753.5669,1232.0806,1757.5669,1222.0806,1753.5669,1226.0806" style="stroke:#181818;stroke-width:1.0;"/><line style="stroke:#181818;stroke-width:1.0;" x1="1966.7925" x2="1966.7925" y1="1132.4326" y2="1164.1431"/><polygon fill="#181818" points="1962.7925,1154.1431,1966.7925,1164.1431,1970.7925,1154.1431,1966.7925,1158.1431" style="stroke:#181818;stroke-width:1.0;"/><line style="stroke:#181818;stroke-width:1.0;" x1="1966.7925" x2="1966.7925" y1="1212.0806" y2="1232.0806"/><polygon fill="#181818" points="1962.7925,1222.0806,1966.7925,1232.0806,1970.7925,1222.0806,1966.7925,1226.0806" style="stroke:#181818;stroke-width:1.0;"/><line style="stroke:#181818;stroke-width:1.0;" x1="1837.7437" x2="1883.4536" y1="1120.4326" y2="1120.4326"/><polygon fill="#181818" points="1873.4536,1116.4326,1883.4536,1120.4326,1873.4536,1124.4326,1877.4536,1120.4326" style="stroke:#181818;stroke-width:1.0;"/><line style="stroke:#181818;stroke-width:1.0;" x1="2076.5793" x2="1753.5669" y1="1061.4326" y2="1061.4326"/><line style="stroke:#181818;stroke-width:1.0;" x1="1753.5669" x2="1753.5669" y1="1061.4326" y2="1108.4326"/><polygon fill="#181818" points="1749.5669,1098.4326,1753.5669,1108.4326,1757.5669,1098.4326,1753.5669,1102.4326" style="stroke:#181818;stroke-width:1.0;"/><line style="stroke:#181818;stroke-width:1.0;" x1="2050.1313" x2="2154.062" y1="1120.4326" y2="1120.4326"/><line style="stroke:#181818;stroke-width:1.0;" x1="2154.062" x2="2154.062" y1="1120.4326" y2="1167.7251"/><polygon fill="#181818" points="2150.062,1157.7251,2154.062,1167.7251,2158.062,1157.7251,2154.062,1161.7251" style="stroke:#181818;stroke-width:1.0;"/><line style="stroke:#181818;stroke-width:1.0;" x1="2154.062" x2="2154.062" y1="1201.6938" y2="1232.0806"/><polygon fill="#181818" points="2150.062,1222.0806,2154.062,1232.0806,2158.062,1222.0806,2154.062,1226.0806" style="stroke:#181818;stroke-width:1.0;"/><line style="stroke:#181818;stroke-width:1.0;" x1="1753.5669" x2="2154.062" y1="1232.0806" y2="1232.0806"/><line style="stroke:#181818;stroke-width:1.0;" x1="2224.2703" x2="2370.0132" y1="1061.4326" y2="1061.4326"/><line style="stroke:#181818;stroke-width:1.0;" x1="2370.0132" x2="2370.0132" y1="1061.4326" y2="1083.4326"/><polygon fill="#181818" points="2366.0132,1073.4326,2370.0132,1083.4326,2374.0132,1073.4326,2370.0132,1077.4326" style="stroke:#181818;stroke-width:1.0;"/><line style="stroke:#181818;stroke-width:1.0;" x1="1930.8364" x2="1930.8364" y1="1232.0806" y2="1237.0806"/><line style="stroke:#181818;stroke-width:1.0;" x1="1930.8364" x2="2611.3608" y1="1237.0806" y2="1237.0806"/><line style="stroke:#181818;stroke-width:1.0;" x1="2611.3608" x2="2611.3608" y1="1237.0806" y2="1252.0806"/><polygon fill="#181818" points="2607.3608,1242.0806,2611.3608,1252.0806,2615.3608,1242.0806,2611.3608,1246.0806" style="stroke:#181818;stroke-width:1.0;"/><line style="stroke:#181818;stroke-width:1.0;" x1="2150.4248" x2="2150.4248" y1="1029.4326" y2="1049.4326"/><polygon fill="#181818" points="2146.4248,1039.4326,2150.4248,1049.4326,2154.4248,1039.4326,2150.4248,1043.4326" style="stroke:#181818;stroke-width:1.0;"/><line style="stroke:#181818;stroke-width:1.0;" x1="2611.3608" x2="2611.3608" y1="1300.0181" y2="1320.0181"/><polygon fill="#181818" points="2607.3608,1310.0181,2611.3608,1320.0181,2615.3608,1310.0181,2611.3608,1314.0181" style="stroke:#181818;stroke-width:1.0;"/><line style="stroke:#181818;stroke-width:1.0;" x1="2611.3608" x2="2611.3608" y1="1367.9556" y2="1387.9556"/><polygon fill="#181818" points="2607.3608,1377.9556,2611.3608,1387.9556,2615.3608,1377.9556,2611.3608,1381.9556" style="stroke:#181818;stroke-width:1.0;"/><line style="stroke:#181818;stroke-width:1.0;" x1="2864.4858" x2="2864.4858" y1="1503.8306" y2="1523.8306"/><polygon fill="#181818" points="2860.4858,1513.8306,2864.4858,1523.8306,2868.4858,1513.8306,2864.4858,1517.8306" style="stroke:#181818;stroke-width:1.0;"/><line style="stroke:#181818;stroke-width:1.0;" x1="113.7871" x2="113.7871" y1="163.9326" y2="168.9326"/><line style="stroke:#181818;stroke-width:1.0;" x1="113.7871" x2="402.4438" y1="168.9326" y2="168.9326"/><line style="stroke:#181818;stroke-width:1.0;" x1="402.4438" x2="402.4438" y1="168.9326" y2="183.9326"/><polygon fill="#181818" points="398.4438,173.9326,402.4438,183.9326,406.4438,173.9326,402.4438,177.9326" style="stroke:#181818;stroke-width:1.0;"/><line style="stroke:#181818;stroke-width:1.0;" x1="402.4438" x2="402.4438" y1="271.8701" y2="276.8701"/><line style="stroke:#181818;stroke-width:1.0;" x1="402.4438" x2="722.8613" y1="276.8701" y2="276.8701"/><line style="stroke:#181818;stroke-width:1.0;" x1="722.8613" x2="722.8613" y1="276.8701" y2="291.8701"/><polygon fill="#181818" points="718.8613,281.8701,722.8613,291.8701,726.8613,281.8701,722.8613,285.8701" style="stroke:#181818;stroke-width:1.0;"/><line style="stroke:#181818;stroke-width:1.0;" x1="844.0688" x2="844.0688" y1="437.7764" y2="455.2764"/><line style="stroke:#181818;stroke-width:1.0;" x1="844.0688" x2="234.9946" y1="455.2764" y2="455.2764"/><line style="stroke:#181818;stroke-width:1.0;" x1="234.9946" x2="234.9946" y1="455.2764" y2="471.7451"/><polygon fill="#181818" points="230.9946,461.7451,234.9946,471.7451,238.9946,461.7451,234.9946,465.7451" style="stroke:#181818;stroke-width:1.0;"/><line style="stroke:#181818;stroke-width:1.0;" x1="1083.7114" x2="1083.7114" y1="709.6201" y2="714.6201"/><line style="stroke:#181818;stroke-width:1.0;" x1="1083.7114" x2="1436.7432" y1="714.6201" y2="714.6201"/><line style="stroke:#181818;stroke-width:1.0;" x1="1436.7432" x2="1436.7432" y1="714.6201" y2="729.6201"/><polygon fill="#181818" points="1432.7432,719.6201,1436.7432,729.6201,1440.7432,719.6201,1436.7432,723.6201" style="stroke:#181818;stroke-width:1.0;"/><line style="stroke:#181818;stroke-width:1.0;" x1="2611.3608" x2="2611.3608" y1="1435.8931" y2="1440.8931"/><line style="stroke:#181818;stroke-width:1.0;" x1="2611.3608" x2="2864.4858" y1="1440.8931" y2="1440.8931"/><line style="stroke:#181818;stroke-width:1.0;" x1="2864.4858" x2="2864.4858" y1="1440.8931" y2="1455.8931"/><polygon fill="#181818" points="2860.4858,1445.8931,2864.4858,1455.8931,2868.4858,1445.8931,2864.4858,1449.8931" style="stroke:#181818;stroke-width:1.0;"/><line style="stroke:#181818;stroke-width:1.0;" x1="2864.4858" x2="2864.4858" y1="1557.7993" y2="1562.7993"/><line style="stroke:#181818;stroke-width:1.0;" x1="2864.4858" x2="113.7871" y1="1562.7993" y2="1562.7993"/><line style="stroke:#181818;stroke-width:1.0;" x1="113.7871" x2="113.7871" y1="1562.7993" y2="1577.7993"/><polygon fill="#181818" points="109.7871,1567.7993,113.7871,1577.7993,117.7871,1567.7993,113.7871,1571.7993" style="stroke:#181818;stroke-width:1.0;"/><text fill="#000000" font-family="sans-serif" font-size="18" lengthAdjust="spacing" textLength="87.249" x="121.553" y="66.75">&#1047;&#1072;&#1082;&#1072;&#1079;&#1095;&#1080;&#1082;</text><text fill="#000000" font-family="sans-serif" font-size="18" lengthAdjust="spacing" textLength="112.0693" x="345.4092" y="66.75">&#1041;&#1072;&#1083;&#1083;&#1080;&#1089;&#1090;&#1080;&#1082;&#1072;</text><text fill="#000000" font-family="sans-serif" font-size="18" lengthAdjust="spacing" textLength="138.1553" x="655.8701" y="66.75">&#1055;&#1083;&#1072;&#1085;&#1080;&#1088;&#1086;&#1074;&#1072;&#1085;&#1080;&#1077;</text><text fill="#000000" font-family="sans-serif" font-size="18" lengthAdjust="spacing" textLength="213.6094" x="975.9067" y="66.75">&#1057;&#1088;&#1077;&#1076;&#1089;&#1090;&#1074;&#1086; &#1085;&#1072;&#1073;&#1083;&#1102;&#1076;&#1077;&#1085;&#1080;&#1103;</text><text fill="#000000" font-family="sans-serif" font-size="18" lengthAdjust="spacing" textLength="196.9014" x="1323.3662" y="66.75">&#1050;&#1086;&#1085;&#1074;&#1077;&#1081;&#1077;&#1088; &#1086;&#1073;&#1088;&#1072;&#1073;&#1086;&#1090;&#1082;&#1080;</text><text fill="#000000" font-family="sans-serif" font-size="18" lengthAdjust="spacing" textLength="300.4365" x="1919.5322" y="66.75">&#1048;&#1048;-&#1072;&#1085;&#1072;&#1083;&#1080;&#1079; (PyTorch/TensorFlow)</text><text fill="#000000" font-family="sans-serif" font-size="18" lengthAdjust="spacing" textLength="164.7158" x="2528.0029" y="66.75">&#1050;&#1072;&#1090;&#1072;&#1083;&#1086;&#1075; / &#1054;&#1088;&#1073;&#1080;&#1090;&#1072;</text><text fill="#000000" font-family="sans-serif" font-size="18" lengthAdjust="spacing" textLength="56.8477" x="2835.062" y="66.75">&#1054;&#1090;&#1095;&#1105;&#1090;</text><!--SRC=[hLPTRnDN47tVNt4b7eXLGxuKb0_Hoevt9TEG1CLjn5Eqs1l7YkD5zgQKoW-9dH8Wb92g5GWLsgX_m34nMVp5NxZt7_NCt5tRmIwyu4YEz-xScRbdpfovLyNDh_4nhWeHNxszVAtaFSmxGktBfgpBhhoG7Nn_47ZiucTTDkG7sL1x0ezdQa_Mv9digWfU-mBlwR6bdijps7Mahuu5FDHuDrosiNA8tUJSbssAoMwUmhe99rtPlYvYQI_tKyvxA18vErkqToYNhYWzoEtaxO9J4cFoeweYoD4uedIHGbU-v_0t1J-qf3-EBSWHsVfgNnr5hdEa5uZnYF9IbNb1USAuAUGh-UeQygRSiLMdMrT7V8GMcGi-83-gPo4SWw6nG16-JXsyd0VyvUaNy9zdODKnLfh8-DgtW4azLIV0E7WUEXWluYKEK-F3l-CL74uTgXDL4MD4W8XXbBPpXVisGN_FJczdY-vk8RFevjsYk6BnPy2Yj6Ldt0UvGbPislcIC_0ch6FyKnzcp9gougCitMB6AGPMKuithFZC22lGOiSjPE8ZKhjXJdncmw3tnTcvYQdOu3a2VbsockFF2AiK5MauWmdwCupo5IjXJLgJPVaII0DnUG7Q-x9PDagUNVICUVatu3z7AGZsVY5LrHYxLA7t8EiHLPz8qEQ-6nUf9JEoG57CQG2PACiJjcunsIiKHzRA58C9-extNX1ZqGxms6lCj_BDWaw5zh6nZ__FXFfD7S2Cus7BkQhgSBFMZ3bNneOMqyhdBNNzMpOev3_8VHz_X-I9pW5lr6L4Gi7npwdnTKJfuxJeDEflieuA5WbGN3q1aJkKE6Vs36yecGgIwaQfDzu0WDmcfE1FRV2v8Dz5XBVb560Cm2E64FDmeD_LM25u_plICXmRw0bM3qfFYB79MO6rZaO8kjFM0a87Zuh9QS5Yr0dKguwq77G1OdN8XOxsE-FOKLMEjBooyMDoBHbFBYLJTpVMayk9bVMr1HX-XZNaHKFxc507MHh46vypqK871f2JakVUDvn29hV9D9msPwoPiZo5IGDrf3D3L4OADPNl3IFIqBZX6xZK1GEphoM2J_5Sq66HMvE8GMXsrB4cJXMhDTxEqWeG4AO6plAaeB9GXHj46RMloTVGkGLa8RbcMe7p7vaMSAJPjsXQ1CxhBywXCkT4Zti3Jf16mhdd_9BRtI7P-zxUtBRfXvNF5RON-F2awEt-6C2mu3xnMJLvzIoWF9x1tLglRvYTr2pgEAh7XSwf6LeBzPZ9Kmk9-vhmu0J90TwUo5OWye7F5i5FOd0OL0H57kQovTZURj4HpizUqORWkOLvB0yCC3_iZzwOLKTHehZFqa2mLq6fer7C3PEyyqECsMh5aajc8ae1Y7kFkDMu7qPmpp8dubFbuIaqjlemvHRJM-Cffr1oYrRUVH2Xahs2duE03c07bsueJza8y2EtWrDUJsIgHnKRuM48AjvsoWNvo6HiQDr235AyK79PQVkRYGbXIx0Maol2vY_M22fjCc4kfv9Mqao8RqJQBMpcCauXxH0a12d7VH4eUArtXsZm0Pd8lLJwOMjzUoBLSD3OyihjsDBTABzW4ldCNvyLeHA6w8P1r9CmI9XNM6g-Nrq6PLJ0PNDzOoL-ornCiGCkyp1ZJb2aWs1kNEZf4FJr9tohahImYWG209KdNd6wh2z1y-xJ9OnalSkJfH90KzTtCygLyiaudftUwhCl78slBrrtnZ7q4ErCJoSYtR-1b7N2Fgc7Lr74vy74OWR5vL064Q95Yd0nA9LwFjVrg7xBqqaFcLzP1VhEHSBsRB5aRpl6sAfRyh95P-tE4cYpDeslP1e2LSpoxfVXD2Bama7BNg1NZfq5xZ4lRvSYKOFhTmRTh32TqmYHTxFNT-zdRC_9QF7aArSPfm_kUbeZ0-aC529ynuSC-Xgn3_IDGgiXgriFmQZemTUVrAV1-VyO7hBKqQoiJx3Ic_6oJMneXY8Ht3R-TnZgorDBpnez27kfBnWiGly1]--></g></svg>