<svg xmlns="http://www.w3.org/2000/svg" xmlns:xlink="http://www.w3.org/1999/xlink" contentStyleType="text/css" height="1592px" preserveAspectRatio="none" style="width:1625px;height:1592px;background:#FFFFFF;" version="1.1" viewBox="0 0 1625 1592" width="1625px" zoomAndPan="magnify"><title>Sequence - &#1048;&#1048;-&#1072;&#1085;&#1072;&#1083;&#1080;&#1079; &#1089;&#1080;&#1075;&#1085;&#1072;&#1090;&#1091;&#1088;&#1099; (Streaming + Inference + Retry + Circuit Breaker)</title><defs/><g><text fill="#000000" font-family="sans-serif" font-size="14" font-weight="bold" lengthAdjust="spacing" textLength="668.5889" x="474.521" y="27.9951">Sequence - &#1048;&#1048;-&#1072;&#1085;&#1072;&#1083;&#1080;&#1079; &#1089;&#1080;&#1075;&#1085;&#1072;&#1090;&#1091;&#1088;&#1099; (Streaming + Inference + Retry + Circuit Breaker)</text><rect fill="#FFFFFF" height="634.6563" style="stroke:#181818;stroke-width:1.0;" width="10" x="286.7178" y="166.0234"/><rect fill="#FFFFFF" height="512.4063" style="stroke:#181818;stroke-width:1.0;" width="10" x="286.7178" y="870.6172"/><rect fill="#FFFFFF" height="29.1328" style="stroke:#181818;stroke-width:1.0;" width="10" x="572.4243" y="295.5547"/><rect fill="#FFFFFF" height="71.2656" style="stroke:#181818;stroke-width:1.0;" width="10" x="572.4243" y="620.8828"/><rect fill="#FFFFFF" height="29.1328" style="stroke:#181818;stroke-width:1.0;" width="10" x="572.4243" y="899.75"/><rect fill="#FFFFFF" height="35.1328" style="stroke:#181818;stroke-width:1.0;" width="10" x="572.4243" y="1016.2813"/><rect fill="#FFFFFF" height="64.2656" style="stroke:#181818;stroke-width:1.0;" width="10" x="738.3232" y="396.9531"/><rect fill="#FFFFFF" height="29.1328" style="stroke:#181818;stroke-width:1.0;" width="10" x="738.3232" y="562.6172"/><rect fill="#FFFFFF" height="29.1328" style="stroke:#181818;stroke-width:1.0;" width="10" x="738.3232" y="958.0156"/><rect fill="#FFFFFF" height="29.1328" style="stroke:#181818;stroke-width:1.0;" width="10" x="898.6343" y="237.2891"/><rect fill="#FFFFFF" height="29.1328" style="stroke:#181818;stroke-width:1.0;" width="10" x="1049.5142" y="1309.7578"/><rect fill="#FFFFFF" height="73.3984" style="stroke:#181818;stroke-width:1.0;" width="10" x="1546.6528" y="1404.1563"/><rect fill="none" height="302.6094" style="stroke:#000000;stroke-width:1.5;" width="1330.314" x="226.7988" y="1073.4141"/><rect fill="none" height="169.2734" style="stroke:#000000;stroke-width:1.5;" width="1310.314" x="236.7988" y="1097.5469"/><line style="stroke:#181818;stroke-width:0.5;stroke-dasharray:5.0,5.0;" x1="87" x2="87" y1="134.8906" y2="808.6797"/><line style="stroke:#A80036;stroke-width:1.0;stroke-dasharray:1.0,4.0;" x1="87" x2="87" y1="808.6797" y2="849.4844"/><line style="stroke:#181818;stroke-width:0.5;stroke-dasharray:5.0,5.0;" x1="87" x2="87" y1="849.4844" y2="1495.5547"/><line style="stroke:#181818;stroke-width:0.5;stroke-dasharray:5.0,5.0;" x1="290.7988" x2="290.7988" y1="134.8906" y2="808.6797"/><line style="stroke:#A80036;stroke-width:1.0;stroke-dasharray:1.0,4.0;" x1="290.7988" x2="290.7988" y1="808.6797" y2="849.4844"/><line style="stroke:#181818;stroke-width:0.5;stroke-dasharray:5.0,5.0;" x1="290.7988" x2="290.7988" y1="849.4844" y2="1495.5547"/><line style="stroke:#181818;stroke-width:0.5;stroke-dasharray:5.0,5.0;" x1="576.9995" x2="576.9995" y1="134.8906" y2="808.6797"/><line style="stroke:#A80036;stroke-width:1.0;stroke-dasharray:1.0,4.0;" x1="576.9995" x2="576.9995" y1="808.6797" y2="849.4844"/><line style="stroke:#181818;stroke-width:0.5;stroke-dasharray:5.0,5.0;" x1="576.9995" x2="576.9995" y1="849.4844" y2="1495.5547"/><line style="stroke:#181818;stroke-width:0.5;stroke-dasharray:5.0,5.0;" x1="742.6118" x2="742.6118" y1="134.8906" y2="808.6797"/><line style="stroke:#A80036;stroke-width:1.0;stroke-dasharray:1.0,4.0;" x1="742.6118" x2="742.6118" y1="808.6797" y2="849.4844"/><line style="stroke:#181818;stroke-width:0.5;stroke-dasharray:5.0,5.0;" x1="742.6118" x2="742.6118" y1="849.4844" y2="1495.5547"/><line style="stroke:#181818;stroke-width:0.5;stroke-dasharray:5.0,5.0;" x1="903.0347" x2="903.0347" y1="134.8906" y2="808.6797"/><line style="stroke:#A80036;stroke-width:1.0;stroke-dasharray:1.0,4.0;" x1="903.0347" x2="903.0347" y1="808.6797" y2="849.4844"/><line style="stroke:#181818;stroke-width:0.5;stroke-dasharray:5.0,5.0;" x1="903.0347" x2="903.0347" y1="849.4844" y2="1495.5547"/><line style="stroke:#181818;stroke-width:0.5;stroke-dasharray:5.0,5.0;" x1="1054.2339" x2="1054.2339" y1="134.8906" y2="808.6797"/><line style="stroke:#A80036;stroke-width:1.0;stroke-dasharray:1.0,4.0;" x1="1054.2339" x2="1054.2339" y1="808.6797" y2="849.4844"/><line style="stroke:#181818;stroke-width:0.5;stroke-dasharray:5.0,5.0;" x1="1054.2339" x2="1054.2339" y1="849.4844" y2="1495.5547"/><line style="stroke:#181818;stroke-width:0.5;stroke-dasharray:5.0,5.0;" x1="1191.7944" x2="1191.7944" y1="134.8906" y2="808.6797"/><line style="stroke:#A80036;stroke-width:1.0;stroke-dasharray:1.0,4.0;" x1="1191.7944" x2="1191.7944" y1="808.6797" y2="849.4844"/><line style="stroke:#181818;stroke-width:0.5;stroke-dasharray:5.0,5.0;" x1="1191.7944" x2="1191.7944" y1="849.4844" y2="1495.5547"/><line style="stroke:#181818;stroke-width:0.5;stroke-dasharray:5.0,5.0;" x1="1323.1079" x2="1323.1079" y1="134.8906" y2="808.6797"/><line style="stroke:#A80036;stroke-width:1.0;stroke-dasharray:1.0,4.0;" x1="1323.1079" x2="1323.1079" y1="808.6797" y2="849.4844"/><line style="stroke:#181818;stroke-width:0.5;stroke-dasharray:5.0,5.0;" x1="1323.1079" x2="1323.1079" y1="849.4844" y2="1495.5547"/><line style="stroke:#181818;stroke-width:0.5;stroke-dasharray:5.0,5.0;" x1="1550.6748" x2="1550.6748" y1="134.8906" y2="808.6797"/><line style="stroke:#A80036;stroke-width:1.0;stroke-dasharray:1.0,4.0;" x1="1550.6748" x2="1550.6748" y1="808.6797" y2="849.4844"/><line style="stroke:#181818;stroke-width:0.5;stroke-dasharray:5.0,5.0;" x1="1550.6748" x2="1550.6748" y1="849.4844" y2="1495.5547"/><path d="M10,92.2969 L165.4072,92.2969 C170.4072,92.2969 170.4072,113.5938 170.4072,113.5938 C170.4072,113.5938 170.4072,134.8906 165.4072,134.8906 L10,134.8906 C5,134.8906 5,113.5938 5,113.5938 C5,113.5938 5,92.2969 10,92.2969 " fill="#E2E2F0" style="stroke:#181818;stroke-width:0.5;"/><path d="M165.4072,92.2969 C160.4072,92.2969 160.4072,113.5938 160.4072,113.5938 C160.4072,134.8906 165.4072,134.8906 165.4072,134.8906 " fill="none" style="stroke:#181818;stroke-width:0.5;"/><text fill="#000000" font-family="sans-serif" font-size="14" lengthAdjust="spacing" textLength="39.375" x="63.0161" y="110.292">Kafka</text><text fill="#000000" font-family="sans-serif" font-size="14" lengthAdjust="spacing" textLength="145.4072" x="10" y="126.5889">signatures.extracted</text><path d="M10,1494.5547 L165.4072,1494.5547 C170.4072,1494.5547 170.4072,1515.8516 170.4072,1515.8516 C170.4072,1515.8516 170.4072,1537.1484 165.4072,1537.1484 L10,1537.1484 C5,1537.1484 5,1515.8516 5,1515.8516 C5,1515.8516 5,1494.5547 10,1494.5547 " fill="#E2E2F0" style="stroke:#181818;stroke-width:0.5;"/><path d="M165.4072,1494.5547 C160.4072,1494.5547 160.4072,1515.8516 160.4072,1515.8516 C160.4072,1537.1484 165.4072,1537.1484 165.4072,1537.1484 " fill="none" style="stroke:#181818;stroke-width:0.5;"/><text fill="#000000" font-family="sans-serif" font-size="14" lengthAdjust="spacing" textLength="39.375" x="63.0161" y="1512.5498">Kafka</text><text fill="#000000" font-family="sans-serif" font-size="14" lengthAdjust="spacing" textLength="145.4072" x="10" y="1528.8467">signatures.extracted</text><rect fill="#EAF2FB" height="46.5938" rx="2.5" ry="2.5" style="stroke:#2C6FB5;stroke-width:0.5;" width="89.8379" x="246.7988" y="87.2969"/><text fill="#000000" font-family="sans-serif" font-size="14" lengthAdjust="spacing" textLength="75.8379" x="253.7988" y="107.292">AI Analysis</text><text fill="#000000" font-family="sans-serif" font-size="14" lengthAdjust="spacing" textLength="51.7412" x="265.8472" y="123.5889">Service</text><rect fill="#EAF2FB" height="46.5938" rx="2.5" ry="2.5" style="stroke:#2C6FB5;stroke-width:0.5;" width="89.8379" x="246.7988" y="1494.5547"/><text fill="#000000" font-family="sans-serif" font-size="14" lengthAdjust="spacing" textLength="75.8379" x="253.7988" y="1514.5498">AI Analysis</text><text fill="#000000" font-family="sans-serif" font-size="14" lengthAdjust="spacing" textLength="51.7412" x="265.8472" y="1530.8467">Service</text><rect fill="#EAF2FB" height="30.2969" rx="2.5" ry="2.5" style="stroke:#2C6FB5;stroke-width:0.5;" width="118.8496" x="517.9995" y="103.5938"/><text fill="#000000" font-family="sans-serif" font-size="14" lengthAdjust="spacing" textLength="104.8496" x="524.9995" y="123.5889">Circuit Breaker</text><rect fill="#EAF2FB" height="30.2969" rx="2.5" ry="2.5" style="stroke:#2C6FB5;stroke-width:0.5;" width="118.8496" x="517.9995" y="1494.5547"/><text fill="#000000" font-family="sans-serif" font-size="14" lengthAdjust="spacing" textLength="104.8496" x="524.9995" y="1514.5498">Circuit Breaker</text><rect fill="#EAF2FB" height="46.5938" rx="2.5" ry="2.5" style="stroke:#2C6FB5;stroke-width:0.5;" width="165.4229" x="660.6118" y="87.2969"/><text fill="#000000" font-family="sans-serif" font-size="14" lengthAdjust="spacing" textLength="99.6748" x="693.4858" y="107.292">Model Serving</text><text fill="#000000" font-family="sans-serif" font-size="14" lengthAdjust="spacing" textLength="151.4229" x="667.6118" y="123.5889">(PyTorch/TensorFlow)</text><rect fill="#EAF2FB" height="46.5938" rx="2.5" ry="2.5" style="stroke:#2C6FB5;stroke-width:0.5;" width="165.4229" x="660.6118" y="1494.5547"/><text fill="#000000" font-family="sans-serif" font-size="14" lengthAdjust="spacing" textLength="99.6748" x="693.4858" y="1514.5498">Model Serving</text><text fill="#000000" font-family="sans-serif" font-size="14" lengthAdjust="spacing" textLength="151.4229" x="667.6118" y="1530.8467">(PyTorch/TensorFlow)</text><text fill="#000000" font-family="sans-serif" font-size="14" lengthAdjust="spacing" textLength="70.9775" x="865.1455" y="115.292">Data Lake</text><text fill="#000000" font-family="sans-serif" font-size="14" lengthAdjust="spacing" textLength="129.1992" x="836.0347" y="131.5889">(catalog &#1101;&#1090;&#1072;&#1083;&#1086;&#1085;&#1099;)</text><path d="M885.6343,66.2969 C885.6343,56.2969 903.6343,56.2969 903.6343,56.2969 C903.6343,56.2969 921.6343,56.2969 921.6343,66.2969 L921.6343,92.2969 C921.6343,102.2969 903.6343,102.2969 903.6343,102.2969 C903.6343,102.2969 885.6343,102.2969 885.6343,92.2969 L885.6343,66.2969 " fill="#E2E2F0" style="stroke:#181818;stroke-width:1.5;"/><path d="M885.6343,66.2969 C885.6343,76.2969 903.6343,76.2969 903.6343,76.2969 C903.6343,76.2969 921.6343,76.2969 921.6343,66.2969 " fill="none" style="stroke:#181818;stroke-width:1.5;"/><text fill="#000000" font-family="sans-serif" font-size="14" lengthAdjust="spacing" textLength="70.9775" x="865.1455" y="1507.5498">Data Lake</text><text fill="#000000" font-family="sans-serif" font-size="14" lengthAdjust="spacing" textLength="129.1992" x="836.0347" y="1523.8467">(catalog &#1101;&#1090;&#1072;&#1083;&#1086;&#1085;&#1099;)</text><path d="M885.6343,1537.1484 C885.6343,1527.1484 903.6343,1527.1484 903.6343,1527.1484 C903.6343,1527.1484 921.6343,1527.1484 921.6343,1537.1484 L921.6343,1563.1484 C921.6343,1573.1484 903.6343,1573.1484 903.6343,1573.1484 C903.6343,1573.1484 885.6343,1573.1484 885.6343,1563.1484 L885.6343,1537.1484 " fill="#E2E2F0" style="stroke:#181818;stroke-width:1.5;"/><path d="M885.6343,1537.1484 C885.6343,1547.1484 903.6343,1547.1484 903.6343,1547.1484 C903.6343,1547.1484 921.6343,1547.1484 921.6343,1537.1484 " fill="none" style="stroke:#181818;stroke-width:1.5;"/><text fill="#000000" font-family="sans-serif" font-size="14" lengthAdjust="spacing" textLength="71.0664" x="1015.981" y="115.292">&#1040;&#1085;&#1072;&#1083;&#1080;&#1090;&#1080;&#1082;</text><text fill="#000000" font-family="sans-serif" font-size="14" lengthAdjust="spacing" textLength="140.5605" x="981.2339" y="131.5889">(human-in-the-loop)</text><ellipse cx="1054.5142" cy="50.7969" fill="#E2E2F0" rx="8" ry="8" style="stroke:#181818;stroke-width:0.5;"/><path d="M1054.5142,58.7969 L1054.5142,85.7969 M1041.5142,66.7969 L1067.5142,66.7969 M1054.5142,85.7969 L1041.5142,100.7969 M1054.5142,85.7969 L1067.5142,100.7969 " fill="none" style="stroke:#181818;stroke-width:0.5;"/><text fill="#000000" font-family="sans-serif" font-size="14" lengthAdjust="spacing" textLength="71.0664" x="1015.981" y="1507.5498">&#1040;&#1085;&#1072;&#1083;&#1080;&#1090;&#1080;&#1082;</text><text fill="#000000" font-family="sans-serif" font-size="14" lengthAdjust="spacing" textLength="140.5605" x="981.2339" y="1523.8467">(human-in-the-loop)</text><ellipse cx="1054.5142" cy="1535.6484" fill="#E2E2F0" rx="8" ry="8" style="stroke:#181818;stroke-width:0.5;"/><path d="M1054.5142,1543.6484 L1054.5142,1570.6484 M1041.5142,1551.6484 L1067.5142,1551.6484 M1054.5142,1570.6484 L1041.5142,1585.6484 M1054.5142,1570.6484 L1067.5142,1585.6484 " fill="none" style="stroke:#181818;stroke-width:0.5;"/><path d="M1142.7944,108.5938 L1241.1079,108.5938 C1246.1079,108.5938 1246.1079,121.7422 1246.1079,121.7422 C1246.1079,121.7422 1246.1079,134.8906 1241.1079,134.8906 L1142.7944,134.8906 C1137.7944,134.8906 1137.7944,121.7422 1137.7944,121.7422 C1137.7944,121.7422 1137.7944,108.5938 1142.7944,108.5938 " fill="#E2E2F0" style="stroke:#181818;stroke-width:0.5;"/><path d="M1241.1079,108.5938 C1236.1079,108.5938 1236.1079,121.7422 1236.1079,121.7422 C1236.1079,134.8906 1241.1079,134.8906 1241.1079,134.8906 " fill="none" style="stroke:#181818;stroke-width:0.5;"/><text fill="#000000" font-family="sans-serif" font-size="14" lengthAdjust="spacing" textLength="88.3135" x="1142.7944" y="126.5889">Retry Queue</text><path d="M1142.7944,1494.5547 L1241.1079,1494.5547 C1246.1079,1494.5547 1246.1079,1507.7031 1246.1079,1507.7031 C1246.1079,1507.7031 1246.1079,1520.8516 1241.1079,1520.8516 L1142.7944,1520.8516 C1137.7944,1520.8516 1137.7944,1507.7031 1137.7944,1507.7031 C1137.7944,1507.7031 1137.7944,1494.5547 1142.7944,1494.5547 " fill="#E2E2F0" style="stroke:#181818;stroke-width:0.5;"/><path d="M1241.1079,1494.5547 C1236.1079,1494.5547 1236.1079,1507.7031 1236.1079,1507.7031 C1236.1079,1520.8516 1241.1079,1520.8516 1241.1079,1520.8516 " fill="none" style="stroke:#181818;stroke-width:0.5;"/><text fill="#000000" font-family="sans-serif" font-size="14" lengthAdjust="spacing" textLength="88.3135" x="1142.7944" y="1512.5498">Retry Queue</text><path d="M1261.1079,92.2969 L1385.8765,92.2969 C1390.8765,92.2969 1390.8765,113.5938 1390.8765,113.5938 C1390.8765,113.5938 1390.8765,134.8906 1385.8765,134.8906 L1261.1079,134.8906 C1256.1079,134.8906 1256.1079,113.5938 1256.1079,113.5938 C1256.1079,113.5938 1256.1079,92.2969 1261.1079,92.2969 " fill="#E2E2F0" style="stroke:#181818;stroke-width:0.5;"/><path d="M1385.8765,92.2969 C1380.8765,92.2969 1380.8765,113.5938 1380.8765,113.5938 C1380.8765,134.8906 1385.8765,134.8906 1385.8765,134.8906 " fill="none" style="stroke:#181818;stroke-width:0.5;"/><text fill="#000000" font-family="sans-serif" font-size="14" lengthAdjust="spacing" textLength="39.375" x="1298.8047" y="110.292">Kafka</text><text fill="#000000" font-family="sans-serif" font-size="14" lengthAdjust="spacing" textLength="114.7686" x="1261.1079" y="126.5889">ai.classifications</text><path d="M1261.1079,1494.5547 L1385.8765,1494.5547 C1390.8765,1494.5547 1390.8765,1515.8516 1390.8765,1515.8516 C1390.8765,1515.8516 1390.8765,1537.1484 1385.8765,1537.1484 L1261.1079,1537.1484 C1256.1079,1537.1484 1256.1079,1515.8516 1256.1079,1515.8516 C1256.1079,1515.8516 1256.1079,1494.5547 1261.1079,1494.5547 " fill="#E2E2F0" style="stroke:#181818;stroke-width:0.5;"/><path d="M1385.8765,1494.5547 C1380.8765,1494.5547 1380.8765,1515.8516 1380.8765,1515.8516 C1380.8765,1537.1484 1385.8765,1537.1484 1385.8765,1537.1484 " fill="none" style="stroke:#181818;stroke-width:0.5;"/><text fill="#000000" font-family="sans-serif" font-size="14" lengthAdjust="spacing" textLength="39.375" x="1298.8047" y="1512.5498">Kafka</text><text fill="#000000" font-family="sans-serif" font-size="14" lengthAdjust="spacing" textLength="114.7686" x="1261.1079" y="1528.8467">ai.classifications</text><rect fill="#EAF2FB" height="30.2969" rx="2.5" ry="2.5" style="stroke:#2C6FB5;stroke-width:0.5;" width="123.9561" x="1489.6748" y="103.5938"/><text fill="#000000" font-family="sans-serif" font-size="14" lengthAdjust="spacing" textLength="109.9561" x="1496.6748" y="123.5889">Catalog Service</text><rect fill="#EAF2FB" height="30.2969" rx="2.5" ry="2.5" style="stroke:#2C6FB5;stroke-width:0.5;" width="123.9561" x="1489.6748" y="1494.5547"/><text fill="#000000" font-family="sans-serif" font-size="14" lengthAdjust="spacing" textLength="109.9561" x="1496.6748" y="1514.5498">Catalog Service</text><rect fill="#FFFFFF" height="634.6563" style="stroke:#181818;stroke-width:1.0;" width="10" x="286.7178" y="166.0234"/><rect fill="#FFFFFF" height="512.4063" style="stroke:#181818;stroke-width:1.0;" width="10" x="286.7178" y="870.6172"/><rect fill="#FFFFFF" height="29.1328" style="stroke:#181818;stroke-width:1.0;" width="10" x="572.4243" y="295.5547"/><rect fill="#FFFFFF" height="71.2656" style="stroke:#181818;stroke-width:1.0;" width="10" x="572.4243" y="620.8828"/><rect fill="#FFFFFF" height="29.1328" style="stroke:#181818;stroke-width:1.0;" width="10" x="572.4243" y="899.75"/><rect fill="#FFFFFF" height="35.1328" style="stroke:#181818;stroke-width:1.0;" width="10" x="572.4243" y="1016.2813"/><rect fill="#FFFFFF" height="64.2656" style="stroke:#181818;stroke-width:1.0;" width="10" x="738.3232" y="396.9531"/><rect fill="#FFFFFF" height="29.1328" style="stroke:#181818;stroke-width:1.0;" width="10" x="738.3232" y="562.6172"/><rect fill="#FFFFFF" height="29.1328" style="stroke:#181818;stroke-width:1.0;" width="10" x="738.3232" y="958.0156"/><rect fill="#FFFFFF" height="29.1328" style="stroke:#181818;stroke-width:1.0;" width="10" x="898.6343" y="237.2891"/><rect fill="#FFFFFF" height="29.1328" style="stroke:#181818;stroke-width:1.0;" width="10" x="1049.5142" y="1309.7578"/><rect fill="#FFFFFF" height="73.3984" style="stroke:#181818;stroke-width:1.0;" width="10" x="1546.6528" y="1404.1563"/><polygon fill="#181818" points="274.7178,162.0234,284.7178,166.0234,274.7178,170.0234,278.7178,166.0234" style="stroke:#181818;stroke-width:1.0;"/><line style="stroke:#181818;stroke-width:1.0;" x1="87.7036" x2="280.7178" y1="166.0234" y2="166.0234"/><text fill="#000000" font-family="sans-serif" font-size="13" font-weight="bold" lengthAdjust="spacing" textLength="9.0454" x="97.2036" y="160.9575">1</text><text fill="#000000" font-family="sans-serif" font-size="13" lengthAdjust="spacing" textLength="166.9688" x="110.249" y="160.9575">signature(SIG-1, trace_id)</text><line style="stroke:#181818;stroke-width:1.0;" x1="296.7178" x2="338.7178" y1="195.1563" y2="195.1563"/><line style="stroke:#181818;stroke-width:1.0;" x1="338.7178" x2="338.7178" y1="195.1563" y2="208.1563"/><line style="stroke:#181818;stroke-width:1.0;" x1="297.7178" x2="338.7178" y1="208.1563" y2="208.1563"/><polygon fill="#181818" points="307.7178,204.1563,297.7178,208.1563,307.7178,212.1563,303.7178,208.1563" style="stroke:#181818;stroke-width:1.0;"/><text fill="#000000" font-family="sans-serif" font-size="13" font-weight="bold" lengthAdjust="spacing" textLength="9.0454" x="303.7178" y="190.0903">2</text><text fill="#000000" font-family="sans-serif" font-size="13" lengthAdjust="spacing" textLength="203.6519" x="316.7632" y="190.0903">&#1076;&#1077;&#1076;&#1091;&#1087; &#1087;&#1086; (sensor_id, frame_id)</text><polygon fill="#181818" points="886.6343,233.2891,896.6343,237.2891,886.6343,241.2891,890.6343,237.2891" style="stroke:#181818;stroke-width:1.0;"/><line style="stroke:#181818;stroke-width:1.0;" x1="296.7178" x2="892.6343" y1="237.2891" y2="237.2891"/><text fill="#000000" font-family="sans-serif" font-size="13" font-weight="bold" lengthAdjust="spacing" textLength="9.0454" x="485.4934" y="232.2231">3</text><text fill="#000000" font-family="sans-serif" font-size="13" lengthAdjust="spacing" textLength="211.3198" x="498.5388" y="232.2231">&#1079;&#1072;&#1075;&#1088;&#1091;&#1079;&#1080;&#1090;&#1100; &#1101;&#1090;&#1072;&#1083;&#1086;&#1085;&#1099;-&#1082;&#1072;&#1085;&#1076;&#1080;&#1076;&#1072;&#1090;&#1099;</text><polygon fill="#181818" points="307.7178,262.4219,297.7178,266.4219,307.7178,270.4219,303.7178,266.4219" style="stroke:#181818;stroke-width:1.0;"/><line style="stroke:#181818;stroke-width:1.0;stroke-dasharray:2.0,2.0;" x1="301.7178" x2="902.6343" y1="266.4219" y2="266.4219"/><text fill="#000000" font-family="sans-serif" font-size="13" font-weight="bold" lengthAdjust="spacing" textLength="9.0454" x="539.7173" y="261.356">4</text><text fill="#000000" font-family="sans-serif" font-size="13" lengthAdjust="spacing" textLength="107.8721" x="552.7627" y="261.356">&#1085;&#1072;&#1073;&#1086;&#1088; &#1101;&#1090;&#1072;&#1083;&#1086;&#1085;&#1086;&#1074;</text><polygon fill="#181818" points="560.4243,291.5547,570.4243,295.5547,560.4243,299.5547,564.4243,295.5547" style="stroke:#181818;stroke-width:1.0;"/><line style="stroke:#181818;stroke-width:1.0;" x1="296.7178" x2="566.4243" y1="295.5547" y2="295.5547"/><text fill="#000000" font-family="sans-serif" font-size="13" font-weight="bold" lengthAdjust="spacing" textLength="9.0454" x="306.2178" y="290.4888">5</text><text fill="#000000" font-family="sans-serif" font-size="13" lengthAdjust="spacing" textLength="243.6611" x="319.2632" y="290.4888">&#1087;&#1088;&#1086;&#1074;&#1077;&#1088;&#1080;&#1090;&#1100; &#1089;&#1086;&#1089;&#1090;&#1086;&#1103;&#1085;&#1080;&#1077; Model Serving</text><polygon fill="#181818" points="307.7178,320.6875,297.7178,324.6875,307.7178,328.6875,303.7178,324.6875" style="stroke:#181818;stroke-width:1.0;"/><line style="stroke:#181818;stroke-width:1.0;stroke-dasharray:2.0,2.0;" x1="301.7178" x2="576.4243" y1="324.6875" y2="324.6875"/><text fill="#000000" font-family="sans-serif" font-size="13" font-weight="bold" lengthAdjust="spacing" textLength="9.0454" x="334.9526" y="319.6216">6</text><text fill="#000000" font-family="sans-serif" font-size="13" lengthAdjust="spacing" textLength="191.1914" x="347.998" y="319.6216">CLOSED (&#1087;&#1088;&#1086;&#1087;&#1091;&#1089;&#1090;&#1080;&#1090;&#1100; &#1074;&#1099;&#1079;&#1086;&#1074;)</text><rect fill="#EEEEEE" height="3" style="stroke:#EEEEEE;stroke-width:1.0;" width="1618.6309" x="0" y="353.2539"/><line style="stroke:#000000;stroke-width:1.0;" x1="0" x2="1618.6309" y1="353.2539" y2="353.2539"/><line style="stroke:#000000;stroke-width:1.0;" x1="0" x2="1618.6309" y1="356.2539" y2="356.2539"/><rect fill="#EEEEEE" height="23.1328" style="stroke:#000000;stroke-width:2.0;" width="262.9233" x="677.8538" y="342.6875"/><text fill="#000000" font-family="sans-serif" font-size="13" font-weight="bold" lengthAdjust="spacing" textLength="244.3975" x="683.8538" y="358.7544">&#1055;&#1086;&#1087;&#1099;&#1090;&#1082;&#1072; &#1080;&#1085;&#1092;&#1077;&#1088;&#1077;&#1085;&#1089;&#1072; 1 (&#1090;&#1072;&#1081;&#1084;&#1072;&#1091;&#1090;)</text><polygon fill="#181818" points="726.3232,392.9531,736.3232,396.9531,726.3232,400.9531,730.3232,396.9531" style="stroke:#181818;stroke-width:1.0;"/><line style="stroke:#181818;stroke-width:1.0;" x1="296.7178" x2="732.3232" y1="396.9531" y2="396.9531"/><text fill="#000000" font-family="sans-serif" font-size="13" font-weight="bold" lengthAdjust="spacing" textLength="9.0454" x="473.48" y="391.8872">7</text><text fill="#000000" font-family="sans-serif" font-size="13" lengthAdjust="spacing" textLength="75.0356" x="486.5254" y="391.8872">infer(SIG-1)</text><path d="M753,409.9531 L753,434.9531 L980,434.9531 L980,419.9531 L970,409.9531 L753,409.9531 " fill="#FEFFDD" style="stroke:#181818;stroke-width:0.5;"/><path d="M970,409.9531 L970,419.9531 L980,419.9531 L970,409.9531 " fill="#FEFFDD" style="stroke:#181818;stroke-width:0.5;"/><text fill="#000000" font-family="sans-serif" font-size="13" lengthAdjust="spacing" textLength="206.2036" x="759" y="427.02">&#1055;&#1086;&#1076; &#1085;&#1072;&#1075;&#1088;&#1091;&#1079;&#1082;&#1086;&#1081; / &#1088;&#1077;&#1089;&#1090;&#1072;&#1088;&#1090; &#1087;&#1086;&#1076;&#1072;</text><polygon fill="#181818" points="307.7178,457.2188,297.7178,461.2188,307.7178,465.2188,303.7178,461.2188" style="stroke:#181818;stroke-width:1.0;"/><line style="stroke:#181818;stroke-width:1.0;stroke-dasharray:2.0,2.0;" x1="301.7178" x2="742.3232" y1="461.2188" y2="461.2188"/><text fill="#000000" font-family="sans-serif" font-size="13" font-weight="bold" lengthAdjust="spacing" textLength="9.0454" x="446.4316" y="456.1528">8</text><text fill="#000000" font-family="sans-serif" font-size="13" lengthAdjust="spacing" textLength="134.1323" x="459.4771" y="456.1528">timeout (&gt; 2000 &#1084;&#1089;)</text><polygon fill="#181818" points="565.4243,486.3516,575.4243,490.3516,565.4243,494.3516,569.4243,490.3516" style="stroke:#181818;stroke-width:1.0;"/><line style="stroke:#181818;stroke-width:1.0;" x1="296.7178" x2="571.4243" y1="490.3516" y2="490.3516"/><text fill="#000000" font-family="sans-serif" font-size="13" font-weight="bold" lengthAdjust="spacing" textLength="9.0454" x="360.2195" y="485.2856">9</text><text fill="#000000" font-family="sans-serif" font-size="13" lengthAdjust="spacing" textLength="140.6577" x="373.2649" y="485.2856">&#1079;&#1072;&#1092;&#1080;&#1082;&#1089;&#1080;&#1088;&#1086;&#1074;&#1072;&#1090;&#1100; &#1089;&#1073;&#1086;&#1081;</text><rect fill="#EEEEEE" height="3" style="stroke:#EEEEEE;stroke-width:1.0;" width="1618.6309" x="0" y="518.918"/><line style="stroke:#000000;stroke-width:1.0;" x1="0" x2="1618.6309" y1="518.918" y2="518.918"/><line style="stroke:#000000;stroke-width:1.0;" x1="0" x2="1618.6309" y1="521.918" y2="521.918"/><rect fill="#EEEEEE" height="23.1328" style="stroke:#000000;stroke-width:2.0;" width="258.1499" x="680.2405" y="508.3516"/><text fill="#000000" font-family="sans-serif" font-size="13" font-weight="bold" lengthAdjust="spacing" textLength="239.624" x="686.2405" y="524.4185">&#1055;&#1086;&#1087;&#1099;&#1090;&#1082;&#1072; 2 (backoff 1s, &#1086;&#1096;&#1080;&#1073;&#1082;&#1072;)</text><polygon fill="#181818" points="726.3232,558.6172,736.3232,562.6172,726.3232,566.6172,730.3232,562.6172" style="stroke:#181818;stroke-width:1.0;"/><line style="stroke:#181818;stroke-width:1.0;" x1="296.7178" x2="732.3232" y1="562.6172" y2="562.6172"/><text fill="#000000" font-family="sans-serif" font-size="13" font-weight="bold" lengthAdjust="spacing" textLength="18.0908" x="468.9573" y="557.5513">10</text><text fill="#000000" font-family="sans-serif" font-size="13" lengthAdjust="spacing" textLength="75.0356" x="491.0481" y="557.5513">infer(SIG-1)</text><polygon fill="#181818" points="307.7178,587.75,297.7178,591.75,307.7178,595.75,303.7178,591.75" style="stroke:#181818;stroke-width:1.0;"/><line style="stroke:#181818;stroke-width:1.0;stroke-dasharray:2.0,2.0;" x1="301.7178" x2="742.3232" y1="591.75" y2="591.75"/><text fill="#000000" font-family="sans-serif" font-size="13" font-weight="bold" lengthAdjust="spacing" textLength="18.0908" x="477.7542" y="586.6841">11</text><text fill="#000000" font-family="sans-serif" font-size="13" lengthAdjust="spacing" textLength="62.4419" x="499.845" y="586.6841">HTTP 503</text><polygon fill="#181818" points="560.4243,616.8828,570.4243,620.8828,560.4243,624.8828,564.4243,620.8828" style="stroke:#181818;stroke-width:1.0;"/><line style="stroke:#181818;stroke-width:1.0;" x1="296.7178" x2="566.4243" y1="620.8828" y2="620.8828"/><text fill="#000000" font-family="sans-serif" font-size="13" font-weight="bold" lengthAdjust="spacing" textLength="18.0908" x="344.7258" y="615.8169">12</text><text fill="#000000" font-family="sans-serif" font-size="13" lengthAdjust="spacing" textLength="157.5996" x="366.8167" y="615.8169">&#1087;&#1086;&#1088;&#1086;&#1075; &#1089;&#1073;&#1086;&#1077;&#1074; &#1087;&#1088;&#1077;&#1074;&#1099;&#1096;&#1077;&#1085;</text><line style="stroke:#181818;stroke-width:1.0;stroke-dasharray:2.0,2.0;" x1="582.4243" x2="624.4243" y1="650.0156" y2="650.0156"/><line style="stroke:#181818;stroke-width:1.0;stroke-dasharray:2.0,2.0;" x1="624.4243" x2="624.4243" y1="650.0156" y2="663.0156"/><line style="stroke:#181818;stroke-width:1.0;stroke-dasharray:2.0,2.0;" x1="583.4243" x2="624.4243" y1="663.0156" y2="663.0156"/><polygon fill="#181818" points="593.4243,659.0156,583.4243,663.0156,593.4243,667.0156,589.4243,663.0156" style="stroke:#181818;stroke-width:1.0;"/><text fill="#000000" font-family="sans-serif" font-size="13" font-weight="bold" lengthAdjust="spacing" textLength="18.0908" x="589.4243" y="644.9497">13</text><text fill="#000000" font-family="sans-serif" font-size="13" lengthAdjust="spacing" textLength="92.79" x="611.5151" y="644.9497">state -&gt; OPEN</text><polygon fill="#181818" points="307.7178,688.1484,297.7178,692.1484,307.7178,696.1484,303.7178,692.1484" style="stroke:#181818;stroke-width:1.0;"/><line style="stroke:#181818;stroke-width:1.0;stroke-dasharray:2.0,2.0;" x1="301.7178" x2="576.4243" y1="692.1484" y2="692.1484"/><text fill="#000000" font-family="sans-serif" font-size="13" font-weight="bold" lengthAdjust="spacing" textLength="18.0908" x="349.7046" y="687.0825">14</text><text fill="#000000" font-family="sans-serif" font-size="13" lengthAdjust="spacing" textLength="152.6421" x="371.7954" y="687.0825">OPEN (&#1073;&#1099;&#1089;&#1090;&#1088;&#1099;&#1081; &#1086;&#1090;&#1082;&#1072;&#1079;)</text><polygon fill="#181818" points="1179.9512,717.2813,1189.9512,721.2813,1179.9512,725.2813,1183.9512,721.2813" style="stroke:#181818;stroke-width:1.0;"/><line style="stroke:#181818;stroke-width:1.0;" x1="296.7178" x2="1185.9512" y1="721.2813" y2="721.2813"/><text fill="#000000" font-family="sans-serif" font-size="13" font-weight="bold" lengthAdjust="spacing" textLength="18.0908" x="654.4956" y="716.2153">15</text><text fill="#000000" font-family="sans-serif" font-size="13" lengthAdjust="spacing" textLength="157.5869" x="676.5864" y="716.2153">enqueue Analyze(SIG-1)</text><path d="M169,734.2813 L169,774.2813 L413,774.2813 L413,744.2813 L403,734.2813 L169,734.2813 " fill="#FEFFDD" style="stroke:#181818;stroke-width:0.5;"/><path d="M403,734.2813 L403,744.2813 L413,744.2813 L403,734.2813 " fill="#FEFFDD" style="stroke:#181818;stroke-width:0.5;"/><text fill="#000000" font-family="sans-serif" font-size="13" lengthAdjust="spacing" textLength="169.5649" x="175" y="751.3481">&#1057;&#1080;&#1075;&#1085;&#1072;&#1090;&#1091;&#1088;&#1072; &#1053;&#1045; &#1090;&#1077;&#1088;&#1103;&#1077;&#1090;&#1089;&#1103; -</text><text fill="#000000" font-family="sans-serif" font-size="13" lengthAdjust="spacing" textLength="223.8564" x="175" y="766.481">&#1076;&#1086;&#1072;&#1085;&#1072;&#1083;&#1080;&#1079; &#1087;&#1086;&#1089;&#1083;&#1077; &#1074;&#1086;&#1089;&#1089;&#1090;&#1072;&#1085;&#1086;&#1074;&#1083;&#1077;&#1085;&#1080;&#1103;</text><polygon fill="#181818" points="98.7036,796.6797,88.7036,800.6797,98.7036,804.6797,94.7036,800.6797" style="stroke:#181818;stroke-width:1.0;"/><line style="stroke:#181818;stroke-width:1.0;stroke-dasharray:2.0,2.0;" x1="92.7036" x2="290.7178" y1="800.6797" y2="800.6797"/><text fill="#000000" font-family="sans-serif" font-size="13" font-weight="bold" lengthAdjust="spacing" textLength="18.0908" x="115.084" y="795.6138">16</text><text fill="#000000" font-family="sans-serif" font-size="13" lengthAdjust="spacing" textLength="127.1626" x="137.1748" y="795.6138">ack (offset commit)</text><text fill="#000000" font-family="sans-serif" font-size="11" lengthAdjust="spacing" textLength="226.021" x="706.6677" y="832.8901">cooldown, Circuit Breaker -&gt; HALF_OPEN</text><polygon fill="#181818" points="307.7178,866.6172,297.7178,870.6172,307.7178,874.6172,303.7178,870.6172" style="stroke:#181818;stroke-width:1.0;"/><line style="stroke:#181818;stroke-width:1.0;" x1="301.7178" x2="1190.9512" y1="870.6172" y2="870.6172"/><text fill="#000000" font-family="sans-serif" font-size="13" font-weight="bold" lengthAdjust="spacing" textLength="18.0908" x="613.2676" y="865.5513">17</text><text fill="#000000" font-family="sans-serif" font-size="13" lengthAdjust="spacing" textLength="240.043" x="635.3584" y="865.5513">&#1087;&#1086;&#1074;&#1090;&#1086;&#1088;&#1085;&#1072;&#1103; &#1076;&#1086;&#1089;&#1090;&#1072;&#1074;&#1082;&#1072; Analyze(SIG-1)</text><polygon fill="#181818" points="560.4243,895.75,570.4243,899.75,560.4243,903.75,564.4243,899.75" style="stroke:#181818;stroke-width:1.0;"/><line style="stroke:#181818;stroke-width:1.0;" x1="296.7178" x2="566.4243" y1="899.75" y2="899.75"/><text fill="#000000" font-family="sans-serif" font-size="13" font-weight="bold" lengthAdjust="spacing" textLength="18.0908" x="350.0388" y="894.6841">18</text><text fill="#000000" font-family="sans-serif" font-size="13" lengthAdjust="spacing" textLength="146.9736" x="372.1296" y="894.6841">&#1087;&#1088;&#1086;&#1074;&#1077;&#1088;&#1080;&#1090;&#1100; &#1089;&#1086;&#1089;&#1090;&#1086;&#1103;&#1085;&#1080;&#1077;</text><polygon fill="#181818" points="307.7178,924.8828,297.7178,928.8828,307.7178,932.8828,303.7178,928.8828" style="stroke:#181818;stroke-width:1.0;"/><line style="stroke:#181818;stroke-width:1.0;stroke-dasharray:2.0,2.0;" x1="301.7178" x2="576.4243" y1="928.8828" y2="928.8828"/><text fill="#000000" font-family="sans-serif" font-size="13" font-weight="bold" lengthAdjust="spacing" textLength="18.0908" x="328.678" y="923.8169">19</text><text fill="#000000" font-family="sans-serif" font-size="13" lengthAdjust="spacing" textLength="194.6953" x="350.7688" y="923.8169">HALF_OPEN (&#1087;&#1088;&#1086;&#1073;&#1085;&#1099;&#1081; &#1074;&#1099;&#1079;&#1086;&#1074;)</text><polygon fill="#181818" points="726.3232,954.0156,736.3232,958.0156,726.3232,962.0156,730.3232,958.0156" style="stroke:#181818;stroke-width:1.0;"/><line style="stroke:#181818;stroke-width:1.0;" x1="296.7178" x2="732.3232" y1="958.0156" y2="958.0156"/><text fill="#000000" font-family="sans-serif" font-size="13" font-weight="bold" lengthAdjust="spacing" textLength="18.0908" x="468.9573" y="952.9497">20</text><text fill="#000000" font-family="sans-serif" font-size="13" lengthAdjust="spacing" textLength="75.0356" x="491.0481" y="952.9497">infer(SIG-1)</text><polygon fill="#181818" points="307.7178,983.1484,297.7178,987.1484,307.7178,991.1484,303.7178,987.1484" style="stroke:#181818;stroke-width:1.0;"/><line style="stroke:#181818;stroke-width:1.0;stroke-dasharray:2.0,2.0;" x1="301.7178" x2="742.3232" y1="987.1484" y2="987.1484"/><text fill="#000000" font-family="sans-serif" font-size="13" font-weight="bold" lengthAdjust="spacing" textLength="18.0908" x="429.5215" y="982.0825">21</text><text fill="#000000" font-family="sans-serif" font-size="13" lengthAdjust="spacing" textLength="158.9072" x="451.6123" y="982.0825">result(class, confidence)</text><polygon fill="#181818" points="560.4243,1012.2813,570.4243,1016.2813,560.4243,1020.2813,564.4243,1016.2813" style="stroke:#181818;stroke-width:1.0;"/><line style="stroke:#181818;stroke-width:1.0;" x1="296.7178" x2="566.4243" y1="1016.2813" y2="1016.2813"/><text fill="#000000" font-family="sans-serif" font-size="13" font-weight="bold" lengthAdjust="spacing" textLength="18.0908" x="349.4644" y="1011.2153">22</text><text fill="#000000" font-family="sans-serif" font-size="13" lengthAdjust="spacing" textLength="148.1226" x="371.5552" y="1011.2153">&#1079;&#1072;&#1092;&#1080;&#1082;&#1089;&#1080;&#1088;&#1086;&#1074;&#1072;&#1090;&#1100; &#1091;&#1089;&#1087;&#1077;&#1093;</text><line style="stroke:#181818;stroke-width:1.0;stroke-dasharray:2.0,2.0;" x1="582.4243" x2="624.4243" y1="1050.4141" y2="1050.4141"/><line style="stroke:#181818;stroke-width:1.0;stroke-dasharray:2.0,2.0;" x1="624.4243" x2="624.4243" y1="1050.4141" y2="1063.4141"/><line style="stroke:#181818;stroke-width:1.0;stroke-dasharray:2.0,2.0;" x1="577.4243" x2="624.4243" y1="1063.4141" y2="1063.4141"/><polygon fill="#181818" points="587.4243,1059.4141,577.4243,1063.4141,587.4243,1067.4141,583.4243,1063.4141" style="stroke:#181818;stroke-width:1.0;"/><text fill="#000000" font-family="sans-serif" font-size="13" font-weight="bold" lengthAdjust="spacing" textLength="18.0908" x="589.4243" y="1045.3481">23</text><text fill="#000000" font-family="sans-serif" font-size="13" lengthAdjust="spacing" textLength="109.8081" x="611.5151" y="1045.3481">state -&gt; CLOSED</text><path d="M226.7988,1073.4141 L291.2417,1073.4141 L291.2417,1080.5469 L281.2417,1090.5469 L226.7988,1090.5469 L226.7988,1073.4141 " fill="#EEEEEE" style="stroke:#000000;stroke-width:1.5;"/><rect fill="none" height="302.6094" style="stroke:#000000;stroke-width:1.5;" width="1330.314" x="226.7988" y="1073.4141"/><text fill="#000000" font-family="sans-serif" font-size="13" font-weight="bold" lengthAdjust="spacing" textLength="19.4429" x="241.7988" y="1086.481">alt</text><text fill="#000000" font-family="sans-serif" font-size="11" font-weight="bold" lengthAdjust="spacing" textLength="313.2744" x="306.2417" y="1085.6245">[confidence &gt;= &#1087;&#1086;&#1088;&#1086;&#1075; &#1072;&#1074;&#1090;&#1086;&#1084;&#1072;&#1090;&#1080;&#1095;&#1077;&#1089;&#1082;&#1086;&#1075;&#1086; &#1088;&#1077;&#1096;&#1077;&#1085;&#1080;&#1103;]</text><path d="M236.7988,1097.5469 L301.2417,1097.5469 L301.2417,1104.6797 L291.2417,1114.6797 L236.7988,1114.6797 L236.7988,1097.5469 " fill="#EEEEEE" style="stroke:#000000;stroke-width:1.5;"/><rect fill="none" height="169.2734" style="stroke:#000000;stroke-width:1.5;" width="1310.314" x="236.7988" y="1097.5469"/><text fill="#000000" font-family="sans-serif" font-size="13" font-weight="bold" lengthAdjust="spacing" textLength="19.4429" x="251.7988" y="1110.6138">alt</text><text fill="#000000" font-family="sans-serif" font-size="11" font-weight="bold" lengthAdjust="spacing" textLength="263.9839" x="316.2417" y="1109.7573">[&#1057;&#1086;&#1074;&#1087;&#1072;&#1076;&#1077;&#1085;&#1080;&#1077; &#1089; &#1101;&#1090;&#1072;&#1083;&#1086;&#1085;&#1086;&#1084; (&#1080;&#1079;&#1074;&#1077;&#1089;&#1090;&#1085;&#1099;&#1081; &#1054;&#1053;)]</text><polygon fill="#181818" points="1311.4922,1131.8125,1321.4922,1135.8125,1311.4922,1139.8125,1315.4922,1135.8125" style="stroke:#181818;stroke-width:1.0;"/><line style="stroke:#181818;stroke-width:1.0;" x1="296.7178" x2="1317.4922" y1="1135.8125" y2="1135.8125"/><text fill="#000000" font-family="sans-serif" font-size="13" font-weight="bold" lengthAdjust="spacing" textLength="18.0908" x="641.2664" y="1130.7466">24</text><text fill="#000000" font-family="sans-serif" font-size="13" lengthAdjust="spacing" textLength="315.5864" x="663.3572" y="1130.7466">publish IDENTIFIED(SIG-1, object_id, confidence)</text><line style="stroke:#000000;stroke-width:1.0;stroke-dasharray:2.0,2.0;" x1="236.7988" x2="1547.1128" y1="1144.8125" y2="1144.8125"/><text fill="#000000" font-family="sans-serif" font-size="11" font-weight="bold" lengthAdjust="spacing" textLength="111.7026" x="241.7988" y="1155.0229">[&#1053;&#1077;&#1090; &#1089;&#1086;&#1074;&#1087;&#1072;&#1076;&#1077;&#1085;&#1080;&#1103;]</text><polygon fill="#181818" points="1311.4922,1175.75,1321.4922,1179.75,1311.4922,1183.75,1315.4922,1179.75" style="stroke:#181818;stroke-width:1.0;"/><line style="stroke:#181818;stroke-width:1.0;" x1="296.7178" x2="1317.4922" y1="1179.75" y2="1179.75"/><text fill="#000000" font-family="sans-serif" font-size="13" font-weight="bold" lengthAdjust="spacing" textLength="18.0908" x="668.4026" y="1174.6841">25</text><text fill="#000000" font-family="sans-serif" font-size="13" lengthAdjust="spacing" textLength="261.314" x="690.4934" y="1174.6841">publish NEW_OBJECT(SIG-1, confidence)</text><line style="stroke:#000000;stroke-width:1.0;stroke-dasharray:2.0,2.0;" x1="236.7988" x2="1547.1128" y1="1188.75" y2="1188.75"/><text fill="#000000" font-family="sans-serif" font-size="11" font-weight="bold" lengthAdjust="spacing" textLength="256.3838" x="241.7988" y="1198.9604">[&#1040;&#1085;&#1086;&#1084;&#1072;&#1083;&#1100;&#1085;&#1086;&#1077; &#1087;&#1086;&#1074;&#1077;&#1076;&#1077;&#1085;&#1080;&#1077; &#1080;&#1079;&#1074;&#1077;&#1089;&#1090;&#1085;&#1086;&#1075;&#1086; &#1054;&#1053;]</text><polygon fill="#181818" points="1311.4922,1219.6875,1321.4922,1223.6875,1311.4922,1227.6875,1315.4922,1223.6875" style="stroke:#181818;stroke-width:1.0;"/><line style="stroke:#181818;stroke-width:1.0;" x1="296.7178" x2="1317.4922" y1="1223.6875" y2="1223.6875"/><text fill="#000000" font-family="sans-serif" font-size="13" font-weight="bold" lengthAdjust="spacing" textLength="18.0908" x="627.0889" y="1218.6216">26</text><text fill="#000000" font-family="sans-serif" font-size="13" lengthAdjust="spacing" textLength="343.9414" x="649.1797" y="1218.6216">publish ANOMALY(SIG-1, object_id, type, confidence)</text><path d="M1328,1236.6875 L1328,1261.6875 L1537,1261.6875 L1537,1246.6875 L1527,1236.6875 L1328,1236.6875 " fill="#FEFFDD" style="stroke:#181818;stroke-width:0.5;"/><path d="M1527,1236.6875 L1527,1246.6875 L1537,1246.6875 L1527,1236.6875 " fill="#FEFFDD" style="stroke:#181818;stroke-width:0.5;"/><text fill="#000000" font-family="sans-serif" font-size="13" lengthAdjust="spacing" textLength="188.1128" x="1334" y="1253.7544">&#1055;&#1088;&#1080;&#1086;&#1088;&#1080;&#1090;&#1077;&#1090;&#1085;&#1086;&#1077; &#1086;&#1087;&#1086;&#1074;&#1077;&#1097;&#1077;&#1085;&#1080;&#1077;</text><line style="stroke:#000000;stroke-width:1.0;stroke-dasharray:2.0,2.0;" x1="226.7988" x2="1557.1128" y1="1274.8203" y2="1274.8203"/><text fill="#000000" font-family="sans-serif" font-size="11" font-weight="bold" lengthAdjust="spacing" textLength="284.7593" x="231.7988" y="1285.0308">[confidence &lt; &#1087;&#1086;&#1088;&#1086;&#1075;&#1072; (&#1087;&#1086;&#1075;&#1088;&#1072;&#1085;&#1080;&#1095;&#1085;&#1099;&#1081; &#1089;&#1083;&#1091;&#1095;&#1072;&#1081;)]</text><polygon fill="#181818" points="1037.5142,1305.7578,1047.5142,1309.7578,1037.5142,1313.7578,1041.5142,1309.7578" style="stroke:#181818;stroke-width:1.0;"/><line style="stroke:#181818;stroke-width:1.0;" x1="296.7178" x2="1043.5142" y1="1309.7578" y2="1309.7578"/><text fill="#000000" font-family="sans-serif" font-size="13" font-weight="bold" lengthAdjust="spacing" textLength="18.0908" x="538.0024" y="1304.6919">27</text><text fill="#000000" font-family="sans-serif" font-size="13" lengthAdjust="spacing" textLength="248.1362" x="560.0933" y="1304.6919">&#1085;&#1072;&#1087;&#1088;&#1072;&#1074;&#1080;&#1090;&#1100; &#1085;&#1072; &#1088;&#1091;&#1095;&#1085;&#1091;&#1102; &#1074;&#1077;&#1088;&#1080;&#1092;&#1080;&#1082;&#1072;&#1094;&#1080;&#1102;</text><polygon fill="#181818" points="307.7178,1334.8906,297.7178,1338.8906,307.7178,1342.8906,303.7178,1338.8906" style="stroke:#181818;stroke-width:1.0;"/><line style="stroke:#181818;stroke-width:1.0;stroke-dasharray:2.0,2.0;" x1="301.7178" x2="1053.5142" y1="1338.8906" y2="1338.8906"/><text fill="#000000" font-family="sans-serif" font-size="13" font-weight="bold" lengthAdjust="spacing" textLength="18.0908" x="519.9678" y="1333.8247">28</text><text fill="#000000" font-family="sans-serif" font-size="13" lengthAdjust="spacing" textLength="289.2056" x="542.0586" y="1333.8247">&#1088;&#1077;&#1096;&#1077;&#1085;&#1080;&#1077; (&#1082;&#1083;&#1072;&#1089;&#1089; &#1087;&#1086;&#1076;&#1090;&#1074;&#1077;&#1088;&#1078;&#1076;&#1105;&#1085;/&#1080;&#1089;&#1087;&#1088;&#1072;&#1074;&#1083;&#1077;&#1085;)</text><polygon fill="#181818" points="1311.4922,1364.0234,1321.4922,1368.0234,1311.4922,1372.0234,1315.4922,1368.0234" style="stroke:#181818;stroke-width:1.0;"/><line style="stroke:#181818;stroke-width:1.0;" x1="296.7178" x2="1317.4922" y1="1368.0234" y2="1368.0234"/><text fill="#000000" font-family="sans-serif" font-size="13" font-weight="bold" lengthAdjust="spacing" textLength="18.0908" x="667.79" y="1362.9575">29</text><text fill="#000000" font-family="sans-serif" font-size="13" lengthAdjust="spacing" textLength="262.5391" x="689.8809" y="1362.9575">publish &#1082;&#1083;&#1072;&#1089;&#1089;&#1080;&#1092;&#1080;&#1082;&#1072;&#1094;&#1080;&#1102; (verified=true)</text><polygon fill="#181818" points="1534.6528,1400.1563,1544.6528,1404.1563,1534.6528,1408.1563,1538.6528,1404.1563" style="stroke:#181818;stroke-width:1.0;"/><line style="stroke:#181818;stroke-width:1.0;" x1="1323.4922" x2="1540.6528" y1="1404.1563" y2="1404.1563"/><text fill="#000000" font-family="sans-serif" font-size="13" font-weight="bold" lengthAdjust="spacing" textLength="18.0908" x="1332.9922" y="1399.0903">30</text><text fill="#000000" font-family="sans-serif" font-size="13" lengthAdjust="spacing" textLength="182.0698" x="1355.083" y="1399.0903">&#1088;&#1077;&#1079;&#1091;&#1083;&#1100;&#1090;&#1072;&#1090; &#1082;&#1083;&#1072;&#1089;&#1089;&#1080;&#1092;&#1080;&#1082;&#1072;&#1094;&#1080;&#1080;</text><polygon fill="#181818" points="914.6343,1444.4219,904.6343,1448.4219,914.6343,1452.4219,910.6343,1448.4219" style="stroke:#181818;stroke-width:1.0;"/><line style="stroke:#181818;stroke-width:1.0;" x1="908.6343" x2="1545.6528" y1="1448.4219" y2="1448.4219"/><text fill="#000000" font-family="sans-serif" font-size="13" font-weight="bold" lengthAdjust="spacing" textLength="18.0908" x="1094.6448" y="1435.7896">31</text><text fill="#000000" font-family="sans-serif" font-size="13" lengthAdjust="spacing" textLength="205.645" x="1133.3665" y="1428.2231">&#1091;&#1090;&#1086;&#1095;&#1085;&#1080;&#1090;&#1100; &#1086;&#1088;&#1073;&#1080;&#1090;&#1091; / &#1079;&#1072;&#1074;&#1077;&#1089;&#1090;&#1080; &#1054;&#1053;</text><text fill="#000000" font-family="sans-serif" font-size="13" lengthAdjust="spacing" textLength="238.9067" x="1116.7356" y="1443.356">+ &#1074;&#1077;&#1088;&#1089;&#1080;&#1103; (Iceberg) + lineage (Atlas)</text><polygon fill="#181818" points="1334.4922,1473.5547,1324.4922,1477.5547,1334.4922,1481.5547,1330.4922,1477.5547" style="stroke:#181818;stroke-width:1.0;"/><line style="stroke:#181818;stroke-width:1.0;" x1="1328.4922" x2="1550.6528" y1="1477.5547" y2="1477.5547"/><text fill="#000000" font-family="sans-serif" font-size="13" font-weight="bold" lengthAdjust="spacing" textLength="18.0908" x="1347.8796" y="1472.4888">32</text><text fill="#000000" font-family="sans-serif" font-size="13" lengthAdjust="spacing" textLength="157.2949" x="1369.9705" y="1472.4888">publish catalog.updated</text><!--SRC=[hLTTJzjM6BxthpXY5tL44YXJTr6DIk5hpSfN2z8q2QaooGbuECVCTjgngnBMqeckT1UJgabTjN_0Lmgb4Fx2yJ_Qyxx7Jfm0NJVLDx6Tz-Dvd_Vh-8OO_HoNTKC8_QV-4B-CjtLB7-YsVY_qYOWtzPu-YtVmXDiFUFrEdoUFyJD8dkkz-8a-qUzl2_rQlov07AyWUQAFIUL47x9CCzwAdyGxHQ7VmiWfH8v9DDvXpnUw7JVvVLiVi7dyFCN3aR3lERKr9vS76eZ_ebjm1xVnfY2xOiQlIayioE2HgrQ4FR-nw0ULrQ55gK8_cFBynxayUO1_e8GDm6QxKBK98q9juLqpYMg8hAOOyB37ZsScedWNC5ORTKSLN5M8LcN1y_rre2VR7CSvcpnbzk8jjireoGfxEK4SUq03WwUWiaKKxRDudGC9aq0Gtg9RbtuZ4eFYWOo23J587iRTeD9m8p4MI6TD1fGYfivaXZq1-fb0WEriAYW80KyjP2LXkyMCzAUe22-Vfw8YD_8aClDZGwgA58LFgWzXBqG8hKuS38gogic0jJiaz3EGiwnmpLNhJk3KnR9JMLi9_8QgZlkU7uWlflZAI8IhJjL_JDPhZXVAx3y9q1aPXiwAB7dkYX8LgI8PPAJcdI1oA-wwewAnVcUJfQcHgR5hXFsWAeD4S6JygwcnMvO5Xmqf1hZ0brG8XqxK26HOb3z5WLE9P7L0EA6uLrRMUjUK62YLHKavtaReXakAIxyYMR9KxXNiuufbniTwPNeQQ4bTrK6iDxDWLPt8MNP2G9x0dPY6JIXKSE_vADdVkAof4b63HcbYsa8SY7b0lqhpJbsWJw5ugPECJacbn9YKtwS7_kV1_JxA7BTOyPmmT6ikKBY-2WrXSuseZuW4OvOilBCifn7vgb5VHf8jy2mATq2Yk2qwoR0NojyKRkO59KG-TAiv2iXzv4IIs8Pige6EQ-aZDFq5DvYmGoOGAdbHGpKOPQCmCKqAD00FKVHRk0ChyOi-2Wiy9izX-8Jc5IHskix1BAmKEjw9N0oI-4cF4HfbLbLcjH88usEaHPEhdOof1C9cCgdQyIwFirRlYEqYG271I0V1-FJSmkG4XggnUO5-ve77LdcWqX0wo6NXm8GrEcfMmaMy0t54V6dGuzLDONDGxsaKmt8pXo6LH3Ap0EykJGgJgqo6KBFAns_Whgn6mgyPMNPtP2XB-JSZUqYGJyQDhHOtEPF4lGN5JgHHCfZjEs9aU7XOO3zkzeG5jrcIaMU4WvgdSPSGlfUIpSF_AXP6X4tZpA_LnCqmJrF-EMpiqt-V77mMzTt5nNbnQ_ZBZm2blK3m3bDWE0YO6cbH0W40-RYg05WzZEWbdkRc9sTxIeDUe33sOMAJ5h5Py6qJg3w-L186quFxK9NAT3pFkvzb6YHdrN-41MYg_-_UFK95z4R_8SoMGo6ty7uptXM59TM_6KtOTBPf2JhtG8xpRvg7NbCRnBkC2h1eIjmMo8omaPjGHgBYr-jkr1C5HeDLB1Rnb-zXtwZyfSKDItTBqrCFcHk8MXRYxNJp1Pz1cfmFYcgN5te2x83heu-HorFfqplysfxk8apRUZyv9rtVqF-rBh7l6bvaynpFWp1LSwkqX_zdHs7gWBrM_FJVwzHChFxYSxmeWqBS6Sts1R7F1rKQGpJSjcbSyFGunCpdwV6yKp425vb3UHB22sWVcJ_vuDS_gS-kF97gl_IR79kYox102mwHh3UMFJTS5UM9oTd5ybHvSYBTLlxo3x8IyUx9CaeM98uzr1re2Iw5Nc09wcjTpKv-zt1kxDl9ySNKrTNsNtNFpV4BlcybLKrRiaD2Rxm9YnJnnr6KPkTcIjFVNn5jjB4kBsEYgtSH90RrM_vuQPlc84vIhEqKRVnhYjQ4fweMXvYfaQyp9SBV5QHwI6E8ATtkV361Z2qyOeyPNCdnGQKB_89r3jAbITytj9_OmbRyKdJwc8iV9VWCzozDdNNwNndJgjjYsR94R3PKFq1vaxwXUC4XR6Fv7Uv_r-T3z9tKGSCZq03EZZXbNPkVheD-hCB6qCPnJLP7ew21z12VVOEJZL5_Eb42NXzZIQEGU2ythpMFZx1kA-DqHmRIqnOT6f2ZRSu8iqi9s-U7BVhIE-POJIMUS0qkgS64SNQqA-noHUAak9B3PuZdAedF166N8aokNEghZuZaR5nihEFiB7iY9O3_0000]--></g></svg>